League Spartan-Bold.ufo
<glyph name="dollar" format="2">
	<advance width="672"/>
	<unicode hex="0024"/>
	<outline>
		<contour>
			<point x="415" y="822" type="curve"/>
			<point x="415" y="822" type="line"/>
			<point x="415" y="963" type="line"/>
			<point x="307" y="963" type="line"/>
			<point x="307" y="819" type="line"/>
			<point x="199" y="795"/>
			<point x="103" y="706"/>
			<point x="103" y="582" type="curve"/>
			<point x="103" y="499"/>
			<point x="159" y="425"/>
			<point x="255" y="377" type="curve"/>
			<point x="349" y="330"/>
			<point x="434" y="305"/>
			<point x="434" y="245" type="curve"/>
			<point x="434" y="171"/>
			<point x="359" y="167"/>
			<point x="320" y="167" type="curve"/>
			<point x="231" y="167"/>
			<point x="124" y="257"/>
			<point x="124" y="257" type="curve"/>
			<point x="33" y="105" type="line"/>
			<point x="33" y="105"/>
			<point x="135" y="9"/>
			<point x="307" y="0" type="curve"/>
			<point x="307" y="-138" type="line"/>
			<point x="415" y="-138" type="line"/>
			<point x="415" y="7" type="line"/>
			<point x="536" y="28"/>
			<point x="633" y="100"/>
			<point x="633" y="256" type="curve"/>
			<point x="633" y="361"/>
			<point x="535" y="436"/>
			<point x="446" y="474" type="curve"/>
			<point x="355" y="512"/>
			<point x="280" y="542"/>
			<point x="280" y="589" type="curve"/>
			<point x="280" y="633"/>
			<point x="312" y="660"/>
			<point x="375" y="660" type="curve"/>
			<point x="457" y="660"/>
			<point x="537" y="606"/>
			<point x="537" y="606" type="curve"/>
			<point x="610" y="750" type="line"/>
			<point x="610" y="750"/>
			<point x="531" y="807"/>
		</contour>
	</outline>
</glyph>
<glyph name="ampersand" format="2">
	<advance width="833"/>
	<unicode hex="0026"/>
	<outline>
		<contour>
			<point x="29" y="217" type="curve"/>
			<point x="29" y="217" type="line"/>
			<point x="29" y="34"/>
			<point x="194" y="-15"/>
			<point x="316" y="-15" type="curve"/>
			<point x="443" y="-15"/>
			<point x="509" y="34"/>
			<point x="581" y="85" type="curve"/>
			<point x="663" y="0" type="line"/>
			<point x="900" y="0" type="line"/>
			<point x="722" y="185" type="line"/>
			<point x="783" y="234"/>
			<point x="839" y="298"/>
			<point x="839" y="298" type="curve"/>
			<point x="723" y="412" type="line"/>
			<point x="638" y="324"/>
			<point x="602" y="308"/>
			<point x="602" y="308" type="curve"/>
			<point x="492" y="422" type="line"/>
			<point x="492" y="422"/>
			<point x="655" y="501"/>
			<point x="655" y="625" type="curve"/>
			<point x="655" y="728"/>
			<point x="575" y="840"/>
			<point x="410" y="840" type="curve"/>
			<point x="239" y="840"/>
			<point x="147" y="753"/>
			<point x="147" y="625" type="curve"/>
			<point x="147" y="560"/>
			<point x="182" y="502"/>
			<point x="230" y="442" type="curve"/>
			<point x="133" y="391"/>
			<point x="29" y="320"/>
		</contour>
		<contour>
			<point x="328" y="339" type="curve"/>
			<point x="328" y="339" type="line"/>
			<point x="459" y="210" type="line"/>
			<point x="459" y="210"/>
			<point x="403" y="163"/>
			<point x="335" y="163" type="curve"/>
			<point x="291" y="163"/>
			<point x="242" y="184"/>
			<point x="242" y="232" type="curve"/>
			<point x="242" y="308"/>
			<point x="328" y="339"/>
		</contour>
		<contour>
			<point x="410" y="707" type="curve"/>
			<point x="410" y="707" type="line"/>
			<point x="471" y="707"/>
			<point x="490" y="669"/>
			<point x="490" y="625" type="curve"/>
			<point x="490" y="581"/>
			<point x="440" y="547"/>
			<point x="398" y="524" type="curve"/>
			<point x="398" y="524"/>
			<point x="338" y="577"/>
			<point x="338" y="625" type="curve"/>
			<point x="338" y="669"/>
			<point x="359" y="707"/>
		</contour>
	</outline>
</glyph>
<glyph name="parenleft" format="1">
  <advance width="403"/>
  <unicode hex="28"/>
  <outline>
    <contour>
      <point x="345" y="-226" type="line"/>
      <point x="345" y="-226"/>
      <point x="218" y="-56"/>
      <point x="218" y="282" type="curve" smooth="yes"/>
      <point x="218" y="620"/>
      <point x="345" y="791"/>
      <point x="345" y="791" type="curve"/>
      <point x="230" y="840" type="line"/>
      <point x="230" y="840"/>
      <point x="55" y="628"/>
      <point x="55" y="282" type="curve" smooth="yes"/>
      <point x="55" y="-64"/>
      <point x="230" y="-275"/>
      <point x="230" y="-275" type="curve"/>
    </contour>
  </outline>
</glyph>
<glyph name="parenright" format="1">
  <advance width="403"/>
  <unicode hex="29"/>
  <outline>
    <contour>
      <point x="58" y="-211" type="line"/>
      <point x="58" y="-211"/>
      <point x="185" y="-41"/>
      <point x="185" y="297" type="curve" smooth="yes"/>
      <point x="185" y="655"/>
      <point x="44" y="826"/>
      <point x="44" y="826" type="curve"/>
      <point x="159" y="875" type="line"/>
      <point x="159" y="875"/>
      <point x="348" y="653"/>
      <point x="348" y="297" type="curve" smooth="yes"/>
      <point x="348" y="-49"/>
      <point x="173" y="-260"/>
      <point x="173" y="-260" type="curve"/>
    </contour>
  </outline>
</glyph>
<glyph name="plus" format="1">
  <advance width="633"/>
  <unicode hex="2B"/>
  <outline>
    <contour>
      <point x="573" y="338" type="line"/>
      <point x="573" y="491" type="line"/>
      <point x="393" y="491" type="line"/>
      <point x="393" y="671" type="line"/>
      <point x="240" y="671" type="line"/>
      <point x="240" y="491" type="line"/>
      <point x="60" y="491" type="line"/>
      <point x="60" y="338" type="line"/>
      <point x="240" y="338" type="line"/>
      <point x="240" y="158" type="line"/>
      <point x="393" y="158" type="line"/>
      <point x="393" y="338" type="line"/>
    </contour>
  </outline>
</glyph>
<glyph name="comma" format="2">
	<advance width="349"/>
	<unicode hex="002C"/>
	<outline>
		<contour>
			<point x="174" y="214" type="curve"/>
			<point x="174" y="214" type="line"/>
			<point x="111" y="214"/>
			<point x="60" y="163"/>
			<point x="60" y="99" type="curve"/>
			<point x="60" y="46"/>
			<point x="97" y="6"/>
			<point x="146" y="-6" type="curve"/>
			<point x="130" y="-89"/>
			<point x="70" y="-146"/>
			<point x="70" y="-146" type="curve"/>
			<point x="121" y="-188" type="line"/>
			<point x="203" y="-120"/>
			<point x="289" y="-22"/>
			<point x="289" y="99" type="curve"/>
			<point x="289" y="163"/>
			<point x="238" y="214"/>
		</contour>
	</outline>
</glyph>
<glyph name="hyphen" format="2">
	<advance width="442"/>
	<unicode hex="002D"/>
	<outline>
		<contour>
			<point x="60" y="366" type="line"/>
			<point x="60" y="213" type="line"/>
			<point x="382" y="213" type="line"/>
			<point x="382" y="366" type="line"/>
		</contour>
	</outline>
</glyph>
<glyph name="zero" format="1">
  <advance width="707"/>
  <unicode hex="0030"/>
  <outline>
    <contour>
      <point x="18" y="106"/>
      <point x="177" y="-15"/>
      <point x="354" y="-15" type="curve" smooth="yes"/>
      <point x="531" y="-15"/>
      <point x="689" y="106"/>
      <point x="689" y="412" type="curve" smooth="yes"/>
      <point x="689" y="698"/>
      <point x="531" y="840"/>
      <point x="354" y="840" type="curve" smooth="yes"/>
      <point x="177" y="840"/>
      <point x="18" y="698"/>
      <point x="18" y="412" type="curve" smooth="yes"/>
    </contour>
    <contour>
      <point x="208" y="578"/>
      <point x="263" y="675"/>
      <point x="354" y="675" type="curve" smooth="yes"/>
      <point x="444" y="675"/>
      <point x="499" y="579"/>
      <point x="499" y="412" type="curve" smooth="yes"/>
      <point x="499" y="234"/>
      <point x="444" y="150"/>
      <point x="354" y="150" type="curve" smooth="yes"/>
      <point x="263" y="150"/>
      <point x="208" y="234"/>
      <point x="208" y="412" type="curve" smooth="yes"/>
    </contour>
  </outline>
</glyph>
<glyph name="one" format="2">
	<advance width="413"/>
	<unicode hex="0031"/>
	<outline>
		<contour>
			<point x="29" y="487" type="line"/>
			<point x="165" y="575" type="line"/>
			<point x="165" y="0" type="line"/>
			<point x="353" y="0" type="line"/>
			<point x="353" y="825" type="line"/>
			<point x="264" y="825" type="line"/>
			<point x="29" y="673" type="line"/>
		</contour>
	</outline>
</glyph>
<glyph name="two" format="1">
  <advance width="833"/>
  <unicode hex="32"/>
  <outline>
    <contour>
      <point x="404" y="681" type="line" smooth="yes"/>
      <point x="514" y="681"/>
      <point x="521" y="580"/>
      <point x="521" y="550" type="curve"/>
      <point x="521" y="398"/>
      <point x="96" y="47"/>
      <point x="96" y="47" type="curve"/>
      <point x="96" y="0" type="line"/>
      <point x="739" y="0" type="line"/>
      <point x="739" y="165" type="line"/>
      <point x="433" y="165" type="line"/>
      <point x="433" y="165"/>
      <point x="724" y="357"/>
      <point x="724" y="550" type="curve"/>
      <point x="724" y="654"/>
      <point x="687" y="840"/>
      <point x="404" y="840" type="curve" smooth="yes"/>
      <point x="180" y="840"/>
      <point x="100" y="600"/>
      <point x="100" y="600" type="curve"/>
      <point x="257" y="524" type="line"/>
      <point x="257" y="524"/>
      <point x="314" y="681"/>
      <point x="404" y="681" type="curve" smooth="yes"/>
    </contour>
  </outline>
</glyph>
<glyph name="six" format="1">
  <advance width="691"/>
  <unicode hex="0036"/>
  <outline>
    <contour>
      <point x="352" y="825" type="line"/>
      <point x="158" y="594" type="line"/>
      <point x="72" y="477"/>
      <point x="28" y="410"/>
      <point x="28" y="265" type="curve" smooth="yes"/>
      <point x="28" y="107"/>
      <point x="172" y="-15"/>
      <point x="357" y="-15" type="curve" smooth="yes"/>
      <point x="506" y="-15"/>
      <point x="663" y="70"/>
      <point x="663" y="265" type="curve" smooth="yes"/>
      <point x="663" y="457"/>
      <point x="513" y="554"/>
      <point x="400" y="554" type="curve" smooth="yes"/>
      <point x="362" y="554"/>
      <point x="341" y="542"/>
      <point x="341" y="542" type="curve"/>
      <point x="584" y="825" type="line"/>
    </contour>
    <contour>
      <point x="223" y="339"/>
      <point x="279" y="393"/>
      <point x="348" y="393" type="curve" smooth="yes"/>
      <point x="419" y="393"/>
      <point x="475" y="339"/>
      <point x="475" y="265" type="curve" smooth="yes"/>
      <point x="475" y="193"/>
      <point x="421" y="140"/>
      <point x="348" y="140" type="curve" smooth="yes"/>
      <point x="275" y="140"/>
      <point x="223" y="193"/>
      <point x="223" y="265" type="curve" smooth="yes"/>
    </contour>
  </outline>
</glyph>
<glyph name="eight" format="1">
  <advance width="647"/>
  <unicode hex="38"/>
  <outline>
    <contour>
      <point x="593" y="632" type="line" smooth="yes"/>
      <point x="593" y="541"/>
      <point x="549" y="481"/>
      <point x="487" y="445" type="curve"/>
      <point x="570" y="407"/>
      <point x="632" y="335"/>
      <point x="632" y="222" type="curve" smooth="yes"/>
      <point x="632" y="83"/>
      <point x="479" y="-15"/>
      <point x="324" y="-15" type="curve" smooth="yes"/>
      <point x="164" y="-15"/>
      <point x="15" y="83"/>
      <point x="15" y="222" type="curve" smooth="yes"/>
      <point x="15" y="335"/>
      <point x="76" y="407"/>
      <point x="159" y="445" type="curve"/>
      <point x="96" y="481"/>
      <point x="50" y="541"/>
      <point x="50" y="632" type="curve" smooth="yes"/>
      <point x="50" y="754"/>
      <point x="187" y="840"/>
      <point x="323" y="840" type="curve" smooth="yes"/>
      <point x="464" y="840"/>
      <point x="593" y="754"/>
      <point x="593" y="632" type="curve" smooth="yes"/>
    </contour>
    <contour>
      <point x="219" y="252" type="line" smooth="yes"/>
      <point x="219" y="191"/>
      <point x="261" y="147"/>
      <point x="323" y="147" type="curve" smooth="yes"/>
      <point x="383" y="147"/>
      <point x="428" y="191"/>
      <point x="428" y="252" type="curve" smooth="yes"/>
      <point x="428" y="314"/>
      <point x="381" y="357"/>
      <point x="323" y="357" type="curve" smooth="yes"/>
      <point x="264" y="357"/>
      <point x="219" y="314"/>
      <point x="219" y="252" type="curve" smooth="yes"/>
    </contour>
    <contour>
      <point x="415" y="605" type="line" smooth="yes"/>
      <point x="415" y="658"/>
      <point x="378" y="698"/>
      <point x="324" y="698" type="curve" smooth="yes"/>
      <point x="271" y="698"/>
      <point x="231" y="658"/>
      <point x="231" y="605" type="curve" smooth="yes"/>
      <point x="231" y="550"/>
      <point x="273" y="513"/>
      <point x="324" y="513" type="curve" smooth="yes"/>
      <point x="377" y="513"/>
      <point x="415" y="550"/>
      <point x="415" y="605" type="curve" smooth="yes"/>
    </contour>
  </outline>
</glyph>
<glyph name="nine" format="1">
  <advance width="685"/>
  <unicode hex="39"/>
  <outline>
    <contour>
      <point x="107" y="0" type="line"/>
      <point x="350" y="283" type="line"/>
      <point x="350" y="283"/>
      <point x="329" y="271"/>
      <point x="291" y="271" type="curve" smooth="yes"/>
      <point x="178" y="271"/>
      <point x="28" y="368"/>
      <point x="28" y="560" type="curve" smooth="yes"/>
      <point x="28" y="755"/>
      <point x="185" y="840"/>
      <point x="334" y="840" type="curve" smooth="yes"/>
      <point x="519" y="840"/>
      <point x="663" y="718"/>
      <point x="663" y="560" type="curve" smooth="yes"/>
      <point x="663" y="415"/>
      <point x="619" y="348"/>
      <point x="533" y="231" type="curve"/>
      <point x="339" y="0" type="line"/>
    </contour>
    <contour>
      <point x="468" y="560" type="line"/>
      <point x="468" y="632"/>
      <point x="416" y="685"/>
      <point x="343" y="685" type="curve" smooth="yes"/>
      <point x="270" y="685"/>
      <point x="216" y="632"/>
      <point x="216" y="560" type="curve" smooth="yes"/>
      <point x="216" y="486"/>
      <point x="272" y="432"/>
      <point x="343" y="432" type="curve" smooth="yes"/>
      <point x="412" y="432"/>
      <point x="468" y="486"/>
      <point x="468" y="560" type="curve"/>
    </contour>
  </outline>
</glyph>
<glyph name="less" format="2">
	<advance width="662"/>
	<unicode hex="003C"/>
	<outline>
		<contour>
			<point x="60" y="475" type="line"/>
			<point x="60" y="357" type="line"/>
			<point x="607" y="135" type="line"/>
			<point x="607" y="277" type="line"/>
			<point x="249" y="415" type="line"/>
			<point x="607" y="555" type="line"/>
			<point x="607" y="697" type="line"/>
		</contour>
	</outline>
</glyph>
<glyph name="at" format="2">
	<advance width="921"/>
	<unicode hex="0040"/>
	<outline>
		<contour>
			<point x="718" y="344" type="curve"/>
			<point x="718" y="344" type="line"/>
			<point x="670" y="344"/>
			<point x="667" y="386"/>
			<point x="667" y="386" type="curve"/>
			<point x="667" y="595" type="line"/>
			<point x="548" y="595" type="line"/>
			<point x="548" y="558" type="line"/>
			<point x="517" y="588"/>
			<point x="474" y="606"/>
			<point x="422" y="606" type="curve"/>
			<point x="312" y="606"/>
			<point x="233" y="516"/>
			<point x="233" y="403" type="curve"/>
			<point x="233" y="291"/>
			<point x="312" y="202"/>
			<point x="422" y="202" type="curve"/>
			<point x="475" y="202"/>
			<point x="520" y="225"/>
			<point x="548" y="256" type="curve"/>
			<point x="557" y="269" type="line"/>
			<point x="590" y="241"/>
			<point x="642" y="223"/>
			<point x="696" y="223" type="curve"/>
			<point x="794" y="223"/>
			<point x="899" y="286"/>
			<point x="899" y="442" type="curve"/>
			<point x="899" y="678"/>
			<point x="707" y="840"/>
			<point x="473" y="840" type="curve"/>
			<point x="229" y="840"/>
			<point x="23" y="667"/>
			<point x="23" y="413" type="curve"/>
			<point x="23" y="159"/>
			<point x="229" y="-15"/>
			<point x="473" y="-15" type="curve"/>
			<point x="689" y="-15"/>
			<point x="776" y="118"/>
			<point x="776" y="118" type="curve"/>
			<point x="660" y="195" type="line"/>
			<point x="660" y="195"/>
			<point x="605" y="127"/>
			<point x="473" y="127" type="curve"/>
			<point x="306" y="127"/>
			<point x="169" y="250"/>
			<point x="169" y="413" type="curve"/>
			<point x="169" y="576"/>
			<point x="303" y="709"/>
			<point x="473" y="709" type="curve"/>
			<point x="647" y="709"/>
			<point x="780" y="599"/>
			<point x="780" y="442" type="curve"/>
			<point x="780" y="368"/>
			<point x="761" y="344"/>
		</contour>
		<contour>
			<point x="388" y="405" type="curve"/>
			<point x="388" y="405" type="line"/>
			<point x="388" y="452"/>
			<point x="424" y="487"/>
			<point x="469" y="487" type="curve"/>
			<point x="512" y="487"/>
			<point x="548" y="452"/>
			<point x="548" y="405" type="curve"/>
			<point x="548" y="359"/>
			<point x="514" y="325"/>
			<point x="469" y="325" type="curve"/>
			<point x="421" y="325"/>
			<point x="388" y="359"/>
		</contour>
	</outline>
</glyph>
<glyph name="C" format="1">
  <advance width="739"/>
  <unicode hex="0043"/>
  <outline>
    <contour>
      <point x="310" y="170"/>
      <point x="227" y="302"/>
      <point x="226" y="413" type="curve"/>
      <point x="227" y="523"/>
      <point x="310" y="655"/>
      <point x="499" y="655" type="curve" smooth="yes"/>
      <point x="595" y="655"/>
      <point x="661" y="604"/>
      <point x="661" y="604" type="curve"/>
      <point x="741" y="764" type="line"/>
      <point x="741" y="764"/>
      <point x="649" y="840"/>
      <point x="470" y="840" type="curve" smooth="yes"/>
      <point x="236" y="840"/>
      <point x="23" y="648"/>
      <point x="23" y="411" type="curve" smooth="yes"/>
      <point x="25" y="175"/>
      <point x="237" y="-15"/>
      <point x="470" y="-15" type="curve" smooth="yes"/>
      <point x="649" y="-15"/>
      <point x="741" y="61"/>
      <point x="741" y="61" type="curve"/>
      <point x="661" y="221" type="line"/>
      <point x="661" y="221"/>
      <point x="595" y="170"/>
      <point x="499" y="170" type="curve" smooth="yes"/>
    </contour>
  </outline>
</glyph>
<glyph name="E" format="1">
  <advance width="580"/>
  <unicode hex="0045"/>
  <outline>
    <contour>
      <point x="60" y="0" type="line"/>
      <point x="532" y="0" type="line"/>
      <point x="532" y="165" type="line"/>
      <point x="248" y="165" type="line"/>
      <point x="248" y="331" type="line"/>
      <point x="520" y="331" type="line"/>
      <point x="520" y="496" type="line"/>
      <point x="248" y="496" type="line"/>
      <point x="248" y="660" type="line"/>
      <point x="532" y="660" type="line"/>
      <point x="532" y="825" type="line"/>
      <point x="60" y="825" type="line"/>
    </contour>
    <contour>
      <point x="290" y="825" type="move" name="top"/>
    </contour>
    <contour>
      <point x="522" y="10" type="move" name="ogonek"/>
    </contour>
    <contour>
      <point x="290" y="0" type="move" name="bottom"/>
    </contour>
  </outline>
</glyph>
<glyph name="F" format="1">
  <advance width="575"/>
  <unicode hex="46"/>
  <outline>
    <contour>
      <point x="60" y="0" type="line"/>
      <point x="248" y="0" type="line"/>
      <point x="248" y="825" type="line"/>
      <point x="60" y="825" type="line"/>
    </contour>
    <contour>
      <point x="89" y="660" type="line"/>
      <point x="537" y="660" type="line"/>
      <point x="537" y="825" type="line"/>
      <point x="89" y="825" type="line"/>
    </contour>
    <contour>
      <point x="89" y="331" type="line"/>
      <point x="515" y="331" type="line"/>
      <point x="515" y="496" type="line"/>
      <point x="89" y="496" type="line"/>
    </contour>
  </outline>
</glyph>
<glyph name="G" format="2">
	<advance width="829"/>
	<unicode hex="0047"/>
	<outline>
		<contour>
			<point x="806" y="462" type="line"/>
			<point x="425" y="462" type="line"/>
			<point x="425" y="317" type="line"/>
			<point x="615" y="317" type="line"/>
			<point x="615" y="216"/>
			<point x="526" y="158"/>
			<point x="436" y="158" type="curve"/>
			<point x="320" y="158"/>
			<point x="226" y="272"/>
			<point x="226" y="412" type="curve"/>
			<point x="226" y="555"/>
			<point x="320" y="670"/>
			<point x="436" y="670" type="curve"/>
			<point x="509" y="670"/>
			<point x="572" y="641"/>
			<point x="620" y="564" type="curve"/>
			<point x="743" y="699" type="line"/>
			<point x="671" y="786"/>
			<point x="570" y="840"/>
			<point x="425" y="840" type="curve"/>
			<point x="193" y="840"/>
			<point x="23" y="649"/>
			<point x="23" y="412" type="curve"/>
			<point x="23" y="176"/>
			<point x="203" y="-15"/>
			<point x="425" y="-15" type="curve"/>
			<point x="587" y="-15"/>
			<point x="761" y="74"/>
			<point x="806" y="283" type="curve"/>
		</contour>
	</outline>
</glyph>
<glyph name="I" format="1">
  <advance width="308"/>
  <unicode hex="0049"/>
  <outline>
    <contour>
      <point x="60" y="0" type="line"/>
      <point x="248" y="0" type="line"/>
      <point x="248" y="825" type="line"/>
      <point x="60" y="825" type="line"/>
    </contour>
    <contour>
      <point x="277" y="10" type="move" name="ogonek"/>
    </contour>
    <contour>
      <point x="154" y="825" type="move" name="top"/>
    </contour>
  </outline>
</glyph>
<glyph name="K" format="1">
  <advance width="787"/>
  <unicode hex="4B"/>
  <outline>
    <contour>
      <point x="60" y="0" type="line"/>
      <point x="248" y="0" type="line"/>
      <point x="248" y="825" type="line"/>
      <point x="60" y="825" type="line"/>
    </contour>
    <contour>
      <point x="416" y="447" type="line"/>
      <point x="163" y="447" type="line"/>
      <point x="552" y="0" type="line"/>
      <point x="811" y="0" type="line"/>
    </contour>
    <contour>
      <point x="759" y="825" type="line"/>
      <point x="531" y="825" type="line"/>
      <point x="155" y="378" type="line"/>
      <point x="379" y="378" type="line"/>
    </contour>
  </outline>
</glyph>
<glyph name="M" format="2">
	<advance width="946"/>
	<unicode hex="004D"/>
	<outline>
		<contour>
			<point x="742" y="0" type="line"/>
			<point x="930" y="0" type="line"/>
			<point x="856" y="825" type="line"/>
			<point x="656" y="825" type="line"/>
			<point x="473" y="349" type="line"/>
			<point x="290" y="825" type="line"/>
			<point x="90" y="825" type="line"/>
			<point x="16" y="0" type="line"/>
			<point x="204" y="0" type="line"/>
			<point x="243" y="489" type="line"/>
			<point x="248" y="489" type="line"/>
			<point x="417" y="5" type="line"/>
			<point x="529" y="5" type="line"/>
			<point x="698" y="489" type="line"/>
			<point x="703" y="489" type="line"/>
		</contour>
	</outline>
</glyph>
<glyph name="R" format="1">
  <advance width="716"/>
  <unicode hex="52"/>
  <outline>
    <contour>
      <point x="60" y="0" type="line"/>
      <point x="248" y="0" type="line"/>
      <point x="248" y="326" type="line"/>
      <point x="500" y="0" type="line"/>
      <point x="739" y="0" type="line"/>
      <point x="455" y="341" type="line"/>
      <point x="556" y="373"/>
      <point x="624" y="456"/>
      <point x="624" y="580" type="curve" smooth="yes"/>
      <point x="624" y="742"/>
      <point x="508" y="825"/>
      <point x="355" y="825" type="curve" smooth="yes"/>
      <point x="60" y="825" type="line"/>
    </contour>
    <contour>
      <point x="248" y="675" type="line"/>
      <point x="270" y="675" type="line" smooth="yes"/>
      <point x="341" y="675"/>
      <point x="426" y="670"/>
      <point x="426" y="567" type="curve" smooth="yes"/>
      <point x="426" y="464"/>
      <point x="341" y="459"/>
      <point x="270" y="459" type="curve" smooth="yes"/>
      <point x="248" y="459" type="line"/>
    </contour>
  </outline>
</glyph>
<glyph name="T" format="1">
  <advance width="596"/>
  <unicode hex="0054"/>
  <outline>
    <contour>
      <point x="204" y="0" type="line"/>
      <point x="392" y="0" type="line"/>
      <point x="392" y="660" type="line"/>
      <point x="588" y="660" type="line"/>
      <point x="588" y="825" type="line"/>
      <point x="8" y="825" type="line"/>
      <point x="8" y="660" type="line"/>
      <point x="204" y="660" type="line"/>
    </contour>
    <contour>
      <point x="298" y="825" type="move" name="top"/>
    </contour>
    <contour>
      <point x="298" y="413" type="move" name="center"/>
    </contour>
    <contour>
      <point x="298" y="0" type="move" name="bottom"/>
    </contour>
  </outline>
</glyph>
<glyph name="V" format="1">
  <advance width="830"/>
  <unicode hex="0056"/>
  <outline>
    <contour>
      <point x="835" y="825" type="line"/>
      <point x="623" y="825" type="line"/>
      <point x="415" y="283" type="line"/>
      <point x="207" y="825" type="line"/>
      <point x="-5" y="825" type="line"/>
      <point x="341" y="0" type="line"/>
      <point x="489" y="0" type="line"/>
    </contour>
  </outline>
</glyph>
<glyph name="X" format="2">
	<advance width="798"/>
	<unicode hex="0058"/>
	<outline>
		<contour>
			<point x="832" y="0" type="line"/>
			<point x="510" y="444" type="line"/>
			<point x="780" y="825" type="line"/>
			<point x="546" y="825" type="line"/>
			<point x="394" y="600" type="line"/>
			<point x="242" y="825" type="line"/>
			<point x="18" y="825" type="line"/>
			<point x="278" y="444" type="line"/>
			<point x="-34" y="0" type="line"/>
			<point x="199" y="0" type="line"/>
			<point x="394" y="281" type="line"/>
			<point x="589" y="0" type="line"/>
		</contour>
	</outline>
</glyph>
<glyph name="Y" format="1">
  <advance width="764"/>
  <unicode hex="59"/>
  <outline>
    <contour>
      <point x="382" y="561" type="line"/>
      <point x="210" y="825" type="line"/>
      <point x="-16" y="825" type="line"/>
      <point x="322" y="319" type="line"/>
      <point x="382" y="319" type="line"/>
    </contour>
    <contour>
      <point x="288" y="0" type="line"/>
      <point x="476" y="0" type="line"/>
      <point x="476" y="545" type="line"/>
      <point x="288" y="545" type="line"/>
    </contour>
    <contour>
      <point x="382" y="319" type="line"/>
      <point x="442" y="319" type="line"/>
      <point x="780" y="825" type="line"/>
      <point x="554" y="825" type="line"/>
      <point x="382" y="561" type="line"/>
    </contour>
  </outline>
</glyph>
<glyph name="Z" format="1">
  <advance width="769"/>
  <unicode hex="5A"/>
  <outline>
    <contour>
      <point x="74" y="660" type="line"/>
      <point x="417" y="660" type="line"/>
      <point x="16" y="0" type="line"/>
      <point x="726" y="0" type="line"/>
      <point x="726" y="165" type="line"/>
      <point x="351" y="165" type="line"/>
      <point x="753" y="825" type="line"/>
      <point x="74" y="825" type="line"/>
    </contour>
  </outline>
</glyph>
<glyph name="backslash" format="2">
	<advance width="611"/>
	<unicode hex="005C"/>
	<outline>
		<contour>
			<point x="435" y="0" type="line"/>
			<point x="588" y="0" type="line"/>
			<point x="176" y="860" type="line"/>
			<point x="23" y="860" type="line"/>
		</contour>
	</outline>
</glyph>
<glyph name="bracketright" format="1">
  <advance width="442"/>
  <unicode hex="005D"/>
  <outline>
    <contour>
      <point x="382" y="-260" type="line"/>
      <point x="382" y="860" type="line"/>
      <point x="60" y="860" type="line"/>
      <point x="60" y="743" type="line"/>
      <point x="229" y="743" type="line"/>
      <point x="229" y="-143" type="line"/>
      <point x="60" y="-143" type="line"/>
      <point x="60" y="-260" type="line"/>
    </contour>
  </outline>
</glyph>
<glyph name="grave" format="2">
	<advance width="388"/>
	<unicode hex="0060"/>
	<outline>
		<contour>
			<point x="138" y="840" type="line"/>
			<point x="47" y="725" type="line"/>
			<point x="285" y="587" type="line"/>
			<point x="341" y="664" type="line"/>
		</contour>
	</outline>
</glyph>
<glyph name="g" format="2">
	<advance width="683"/>
	<unicode hex="0067"/>
	<outline>
		<contour>
			<point x="182" y="-55" type="curve"/>
			<point x="182" y="-55" type="line"/>
			<point x="37" y="-126" type="line"/>
			<point x="91" y="-251"/>
			<point x="214" y="-275"/>
			<point x="321" y="-275" type="curve"/>
			<point x="496" y="-275"/>
			<point x="623" y="-186"/>
			<point x="623" y="-14" type="curve"/>
			<point x="623" y="513" type="line"/>
			<point x="446" y="513" type="line"/>
			<point x="446" y="467" type="line"/>
			<point x="443" y="467" type="line"/>
			<point x="401" y="506"/>
			<point x="346" y="528"/>
			<point x="278" y="528" type="curve"/>
			<point x="128" y="528"/>
			<point x="23" y="406"/>
			<point x="23" y="256" type="curve"/>
			<point x="23" y="106"/>
			<point x="128" y="-15"/>
			<point x="278" y="-15" type="curve"/>
			<point x="348" y="-15"/>
			<point x="408" y="-5"/>
			<point x="446" y="37" type="curve"/>
			<point x="446" y="-1" type="line" smooth="yes"/>
			<point x="446" y="-92"/>
			<point x="370" y="-121"/>
			<point x="321" y="-121" type="curve"/>
			<point x="244" y="-121"/>
			<point x="201" y="-86"/>
		</contour>
		<contour>
			<point x="211" y="256" type="curve"/>
			<point x="211" y="256" type="line"/>
			<point x="211" y="327"/>
			<point x="264" y="377"/>
			<point x="331" y="377" type="curve"/>
			<point x="397" y="377"/>
			<point x="450" y="327"/>
			<point x="450" y="256" type="curve"/>
			<point x="450" y="186"/>
			<point x="400" y="136"/>
			<point x="331" y="136" type="curve"/>
			<point x="259" y="136"/>
			<point x="211" y="186"/>
		</contour>
	</outline>
</glyph>
<glyph name="j" format="2">
	<advance width="297"/>
	<unicode hex="006A"/>
	<outline>
		<contour>
			<point x="60" y="513" type="line"/>
			<point x="237" y="513" type="line"/>
			<point x="237" y="-79" type="line" smooth="yes"/>
			<point x="237" y="-170"/>
			<point x="193" y="-275"/>
			<point x="52" y="-275" type="curve"/>
			<point x="-32" y="-275"/>
			<point x="-64" y="-254"/>
			<point x="-89" y="-243" type="curve"/>
			<point x="-34" y="-100" type="line"/>
			<point x="-34" y="-100"/>
			<point x="-11" y="-115"/>
			<point x="11" y="-115" type="curve"/>
			<point x="41" y="-115"/>
			<point x="60" y="-93"/>
			<point x="60" y="-45" type="curve"/>
		</contour>
		<contour>
			<point x="151" y="830" type="curve"/>
			<point x="151" y="830" type="line"/>
			<point x="93" y="830"/>
			<point x="46" y="783"/>
			<point x="46" y="725" type="curve"/>
			<point x="46" y="667"/>
			<point x="93" y="620"/>
			<point x="151" y="620" type="curve"/>
			<point x="209" y="620"/>
			<point x="256" y="667"/>
			<point x="256" y="725" type="curve"/>
			<point x="256" y="783"/>
			<point x="209" y="830"/>
		</contour>
	</outline>
</glyph>
<glyph name="p" format="1">
  <advance width="683"/>
  <unicode hex="0070"/>
  <outline>
    <contour>
      <point x="660" y="407"/>
      <point x="555" y="528"/>
      <point x="405" y="528" type="curve" smooth="yes"/>
      <point x="335" y="528"/>
      <point x="275" y="497"/>
      <point x="237" y="455" type="curve"/>
      <point x="235" y="455" type="line"/>
      <point x="235" y="513" type="line"/>
      <point x="60" y="513" type="line"/>
      <point x="60" y="-260" type="line"/>
      <point x="237" y="-260" type="line"/>
      <point x="237" y="49" type="line"/>
      <point x="279" y="8"/>
      <point x="336" y="-15"/>
      <point x="405" y="-15" type="curve" smooth="yes"/>
      <point x="555" y="-15"/>
      <point x="660" y="107"/>
      <point x="660" y="257" type="curve" smooth="yes"/>
    </contour>
    <contour>
      <point x="472" y="186"/>
      <point x="419" y="136"/>
      <point x="352" y="136" type="curve" smooth="yes"/>
      <point x="286" y="136"/>
      <point x="233" y="186"/>
      <point x="233" y="257" type="curve" smooth="yes"/>
      <point x="233" y="327"/>
      <point x="283" y="377"/>
      <point x="352" y="377" type="curve" smooth="yes"/>
      <point x="424" y="377"/>
      <point x="472" y="327"/>
      <point x="472" y="257" type="curve" smooth="yes"/>
    </contour>
  </outline>
</glyph>
<glyph name="q" format="2">
	<advance width="683"/>
	<unicode hex="0071"/>
	<outline>
		<contour>
			<point x="23" y="257" type="curve"/>
			<point x="23" y="257" type="line"/>
			<point x="23" y="107"/>
			<point x="128" y="-15"/>
			<point x="278" y="-15" type="curve"/>
			<point x="347" y="-15"/>
			<point x="404" y="8"/>
			<point x="446" y="49" type="curve"/>
			<point x="446" y="-260" type="line"/>
			<point x="623" y="-260" type="line"/>
			<point x="623" y="513" type="line"/>
			<point x="448" y="513" type="line"/>
			<point x="448" y="455" type="line"/>
			<point x="446" y="455" type="line"/>
			<point x="408" y="497"/>
			<point x="348" y="528"/>
			<point x="278" y="528" type="curve"/>
			<point x="128" y="528"/>
			<point x="23" y="407"/>
		</contour>
		<contour>
			<point x="211" y="257" type="curve"/>
			<point x="211" y="257" type="line"/>
			<point x="211" y="327"/>
			<point x="259" y="377"/>
			<point x="331" y="377" type="curve"/>
			<point x="400" y="377"/>
			<point x="450" y="327"/>
			<point x="450" y="257" type="curve"/>
			<point x="450" y="186"/>
			<point x="397" y="136"/>
			<point x="331" y="136" type="curve"/>
			<point x="264" y="136"/>
			<point x="211" y="186"/>
		</contour>
	</outline>
</glyph>
<glyph name="r" format="2">
	<advance width="498"/>
	<unicode hex="0072"/>
	<outline>
		<contour>
			<point x="60" y="0" type="line"/>
			<point x="237" y="0" type="line"/>
			<point x="237" y="270" type="line" smooth="yes"/>
			<point x="237" y="283"/>
			<point x="250" y="374"/>
			<point x="342" y="374" type="curve"/>
			<point x="401" y="374"/>
			<point x="434" y="346"/>
			<point x="434" y="346" type="curve"/>
			<point x="508" y="496" type="line"/>
			<point x="508" y="496"/>
			<point x="462" y="528"/>
			<point x="396" y="528" type="curve"/>
			<point x="295" y="528"/>
			<point x="239" y="439"/>
			<point x="239" y="439" type="curve"/>
			<point x="237" y="439" type="line"/>
			<point x="237" y="513" type="line"/>
			<point x="60" y="513" type="line"/>
		</contour>
	</outline>
</glyph>
<glyph name="u" format="1">
  <advance width="656"/>
  <unicode hex="0075"/>
  <outline>
    <contour>
      <point x="227" y="513" type="line"/>
      <point x="50" y="513" type="line"/>
      <point x="50" y="226" type="line" smooth="yes"/>
      <point x="50" y="54"/>
      <point x="136" y="-15"/>
      <point x="328" y="-15" type="curve" smooth="yes"/>
      <point x="520" y="-15"/>
      <point x="606" y="54"/>
      <point x="606" y="226" type="curve" smooth="yes"/>
      <point x="606" y="513" type="line"/>
      <point x="429" y="513" type="line"/>
      <point x="429" y="269" type="line" smooth="yes"/>
      <point x="429" y="168"/>
      <point x="402" y="129"/>
      <point x="328" y="129" type="curve" smooth="yes"/>
      <point x="254" y="129"/>
      <point x="227" y="168"/>
      <point x="227" y="269" type="curve" smooth="yes"/>
    </contour>
    <contour>
      <point x="590" y="10" type="move" name="ogonek"/>
    </contour>
    <contour>
      <point x="328" y="513" type="move" name="top"/>
    </contour>
  </outline>
</glyph>
<glyph name="v" format="1">
  <advance width="690"/>
  <unicode hex="76"/>
  <outline>
    <contour>
      <point x="285" y="0" type="line"/>
      <point x="405" y="0" type="line"/>
      <point x="680" y="513" type="line"/>
      <point x="470" y="513" type="line"/>
      <point x="345" y="234" type="line"/>
      <point x="220" y="513" type="line"/>
      <point x="10" y="513" type="line"/>
    </contour>
  </outline>
</glyph>
<glyph name="w" format="1">
  <advance width="1046"/>
  <unicode hex="77"/>
  <outline>
    <contour>
      <point x="641" y="0" type="line"/>
      <point x="761" y="0" type="line"/>
      <point x="1036" y="513" type="line"/>
      <point x="832" y="513" type="line"/>
      <point x="707" y="236" type="line"/>
      <point x="584" y="513" type="line"/>
      <point x="462" y="513" type="line"/>
      <point x="339" y="236" type="line"/>
      <point x="214" y="513" type="line"/>
      <point x="10" y="513" type="line"/>
      <point x="285" y="0" type="line"/>
      <point x="405" y="0" type="line"/>
      <point x="523" y="265" type="line"/>
    </contour>
  </outline>
</glyph>
<glyph name="z" format="1">
  <advance width="561"/>
  <unicode hex="7A"/>
  <outline>
    <contour>
      <point x="47" y="378" type="line"/>
      <point x="259" y="378" type="line"/>
      <point x="5" y="0" type="line"/>
      <point x="536" y="0" type="line"/>
      <point x="536" y="135" type="line"/>
      <point x="302" y="135" type="line"/>
      <point x="556" y="513" type="line"/>
      <point x="47" y="513" type="line"/>
    </contour>
  </outline>
</glyph>
<glyph name="braceleft" format="2">
	<advance width="446"/>
	<unicode hex="007B"/>
	<outline>
		<contour>
			<point x="60" y="347" type="curve"/>
			<point x="60" y="347" type="line"/>
			<point x="60" y="253" type="line"/>
			<point x="103" y="253"/>
			<point x="130" y="234"/>
			<point x="130" y="188" type="curve"/>
			<point x="130" y="-79" type="line" smooth="yes"/>
			<point x="130" y="-162"/>
			<point x="161" y="-260"/>
			<point x="289" y="-260" type="curve"/>
			<point x="386" y="-260" type="line"/>
			<point x="386" y="-132" type="line"/>
			<point x="346" y="-132" type="line" smooth="yes"/>
			<point x="311" y="-132"/>
			<point x="283" y="-104"/>
			<point x="283" y="-64" type="curve"/>
			<point x="283" y="193" type="line" smooth="yes"/>
			<point x="283" y="249"/>
			<point x="256" y="282"/>
			<point x="222" y="300" type="curve"/>
			<point x="256" y="318"/>
			<point x="283" y="350"/>
			<point x="283" y="407" type="curve"/>
			<point x="283" y="664" type="line" smooth="yes"/>
			<point x="283" y="704"/>
			<point x="311" y="732"/>
			<point x="346" y="732" type="curve"/>
			<point x="386" y="732" type="line"/>
			<point x="386" y="860" type="line"/>
			<point x="289" y="860" type="line" smooth="yes"/>
			<point x="161" y="860"/>
			<point x="130" y="762"/>
			<point x="130" y="679" type="curve"/>
			<point x="130" y="412" type="line" smooth="yes"/>
			<point x="130" y="366"/>
			<point x="103" y="347"/>
		</contour>
	</outline>
</glyph>
<glyph name="cent" format="2">
	<advance width="491"/>
	<unicode hex="00A2"/>
	<outline>
		<contour>
			<point x="248" y="-8" type="curve"/>
			<point x="248" y="-8" type="line"/>
			<point x="248" y="-129" type="line"/>
			<point x="356" y="-129" type="line"/>
			<point x="356" y="-12" type="line"/>
			<point x="436" y="-1"/>
			<point x="479" y="31"/>
			<point x="479" y="31" type="curve"/>
			<point x="419" y="154" type="line"/>
			<point x="419" y="154"/>
			<point x="386" y="130"/>
			<point x="333" y="130" type="curve"/>
			<point x="266" y="130"/>
			<point x="211" y="186"/>
			<point x="211" y="257" type="curve"/>
			<point x="211" y="327"/>
			<point x="266" y="383"/>
			<point x="333" y="383" type="curve"/>
			<point x="386" y="383"/>
			<point x="419" y="359"/>
			<point x="419" y="359" type="curve"/>
			<point x="479" y="480" type="line"/>
			<point x="479" y="480"/>
			<point x="427" y="522"/>
			<point x="326" y="527" type="curve"/>
			<point x="326" y="636" type="line"/>
			<point x="218" y="636" type="line"/>
			<point x="218" y="513" type="line"/>
			<point x="108" y="477"/>
			<point x="23" y="375"/>
			<point x="23" y="255" type="curve"/>
			<point x="23" y="125"/>
			<point x="125" y="18"/>
		</contour>
	</outline>
</glyph>
<glyph name="sterling" format="1">
  <advance width="728"/>
  <unicode hex="A3"/>
  <outline>
    <contour>
      <point x="507" y="289" type="line"/>
      <point x="507" y="384" type="line"/>
      <point x="55" y="384" type="line"/>
      <point x="55" y="289" type="line"/>
    </contour>
    <contour>
      <point x="655" y="651" type="line"/>
      <point x="655" y="651"/>
      <point x="615" y="841"/>
      <point x="381" y="841" type="curve"/>
      <point x="196" y="841"/>
      <point x="100" y="714"/>
      <point x="100" y="558" type="curve"/>
      <point x="286" y="558" type="line"/>
      <point x="286" y="634"/>
      <point x="319" y="689"/>
      <point x="381" y="689" type="curve"/>
      <point x="478" y="689"/>
      <point x="497" y="574"/>
      <point x="497" y="574" type="curve" smooth="yes"/>
    </contour>
    <contour>
      <point x="222" y="236" type="line" smooth="yes"/>
      <point x="222" y="162"/>
      <point x="151" y="115"/>
      <point x="151" y="115" type="curve"/>
      <point x="257" y="78" type="line"/>
      <point x="257" y="78"/>
      <point x="363" y="154"/>
      <point x="363" y="243" type="curve" smooth="yes"/>
      <point x="363" y="403"/>
      <point x="286" y="418"/>
      <point x="286" y="558" type="curve"/>
      <point x="100" y="558" type="line"/>
      <point x="100" y="393"/>
      <point x="222" y="336"/>
      <point x="222" y="236" type="curve" smooth="yes"/>
    </contour>
    <contour>
      <point x="518" y="-15" type="line"/>
      <point x="675" y="-15"/>
      <point x="690" y="126"/>
      <point x="690" y="126" type="curve" smooth="yes"/>
      <point x="575" y="183" type="line"/>
      <point x="575" y="183"/>
      <point x="570" y="113"/>
      <point x="516" y="113" type="curve" smooth="yes"/>
      <point x="429" y="113"/>
      <point x="341" y="167"/>
      <point x="206" y="167" type="curve" smooth="yes"/>
      <point x="84" y="167"/>
      <point x="55" y="0"/>
      <point x="55" y="0" type="curve"/>
      <point x="165" y="0" type="line"/>
      <point x="165" y="0"/>
      <point x="171" y="43"/>
      <point x="212" y="43" type="curve" smooth="yes"/>
      <point x="306" y="43"/>
      <point x="394" y="-15"/>
      <point x="518" y="-15" type="curve"/>
    </contour>
  </outline>
</glyph>
<glyph name="brokenbar" format="2">
	<advance width="273"/>
	<unicode hex="00A6"/>
	<outline>
		<contour>
			<point x="60" y="528" type="line"/>
			<point x="213" y="528" type="line"/>
			<point x="213" y="860" type="line"/>
			<point x="60" y="860" type="line"/>
		</contour>
		<contour>
			<point x="60" y="0" type="line"/>
			<point x="213" y="0" type="line"/>
			<point x="213" y="332" type="line"/>
			<point x="60" y="332" type="line"/>
		</contour>
	</outline>
</glyph>
<glyph name="section" format="1">
  <advance width="640"/>
  <unicode hex="00A7"/>
  <outline>
    <contour>
      <point x="508" y="-275"/>
      <point x="567" y="-152"/>
      <point x="567" y="-66" type="curve" smooth="yes"/>
      <point x="567" y="15"/>
      <point x="537" y="65"/>
      <point x="478" y="109" type="curve"/>
      <point x="561" y="146"/>
      <point x="608" y="214"/>
      <point x="612" y="289" type="curve"/>
      <point x="612" y="403"/>
      <point x="536" y="470"/>
      <point x="416" y="529" type="curve"/>
      <point x="328" y="567"/>
      <point x="263" y="597"/>
      <point x="263" y="637" type="curve" smooth="yes"/>
      <point x="263" y="668"/>
      <point x="284" y="692"/>
      <point x="326" y="692" type="curve" smooth="yes"/>
      <point x="402" y="692"/>
      <point x="407" y="627"/>
      <point x="407" y="627" type="curve"/>
      <point x="567" y="661" type="line"/>
      <point x="567" y="661"/>
      <point x="539" y="840"/>
      <point x="326" y="840" type="curve" smooth="yes"/>
      <point x="146" y="840"/>
      <point x="68" y="739"/>
      <point x="68" y="631" type="curve" smooth="yes"/>
      <point x="68" y="549"/>
      <point x="97" y="499"/>
      <point x="157" y="456" type="curve"/>
      <point x="74" y="419"/>
      <point x="27" y="351"/>
      <point x="23" y="276" type="curve"/>
      <point x="23" y="162"/>
      <point x="99" y="95"/>
      <point x="219" y="36" type="curve"/>
      <point x="307" y="-2"/>
      <point x="370" y="-31"/>
      <point x="370" y="-72" type="curve" smooth="yes"/>
      <point x="370" y="-101"/>
      <point x="349" y="-127"/>
      <point x="288" y="-127" type="curve" smooth="yes"/>
      <point x="206" y="-127"/>
      <point x="183" y="-50"/>
      <point x="183" y="-50" type="curve"/>
      <point x="23" y="-84" type="line"/>
      <point x="23" y="-84"/>
      <point x="55" y="-275"/>
      <point x="288" y="-275" type="curve" smooth="yes"/>
    </contour>
    <contour>
      <point x="299" y="378" type="line" smooth="yes"/>
      <point x="362" y="348"/>
      <point x="445" y="314"/>
      <point x="448" y="260" type="curve"/>
      <point x="445" y="211"/>
      <point x="402" y="187"/>
      <point x="359" y="176" type="curve"/>
      <point x="336" y="187" type="line" smooth="yes"/>
      <point x="273" y="217"/>
      <point x="190" y="251"/>
      <point x="187" y="305" type="curve"/>
      <point x="190" y="353"/>
      <point x="233" y="377"/>
      <point x="275" y="389" type="curve"/>
    </contour>
  </outline>
</glyph>
<glyph name="dieresis" format="2">
	<advance width="561"/>
	<unicode hex="00A8"/>
	<outline>
		<contour>
			<point x="162" y="791" type="curve"/>
			<point x="162" y="791" type="line"/>
			<point x="111" y="791"/>
			<point x="70" y="750"/>
			<point x="70" y="699" type="curve"/>
			<point x="70" y="648"/>
			<point x="111" y="607"/>
			<point x="162" y="607" type="curve"/>
			<point x="213" y="607"/>
			<point x="254" y="648"/>
			<point x="254" y="699" type="curve"/>
			<point x="254" y="750"/>
			<point x="213" y="791"/>
		</contour>
		<contour>
			<point x="399" y="791" type="curve"/>
			<point x="399" y="791" type="line"/>
			<point x="348" y="791"/>
			<point x="307" y="750"/>
			<point x="307" y="699" type="curve"/>
			<point x="307" y="648"/>
			<point x="348" y="607"/>
			<point x="399" y="607" type="curve"/>
			<point x="450" y="607"/>
			<point x="491" y="648"/>
			<point x="491" y="699" type="curve"/>
			<point x="491" y="750"/>
			<point x="450" y="791"/>
		</contour>
	</outline>
</glyph>
<glyph name="guillemotleft" format="2">
	<advance width="625"/>
	<unicode hex="00AB"/>
	<outline>
		<contour>
			<point x="228" y="28" type="line"/>
			<point x="321" y="101" type="line"/>
			<point x="183" y="278" type="line"/>
			<point x="321" y="455" type="line"/>
			<point x="228" y="528" type="line"/>
			<point x="33" y="278" type="line"/>
		</contour>
		<contour>
			<point x="478" y="28" type="line"/>
			<point x="571" y="101" type="line"/>
			<point x="433" y="278" type="line"/>
			<point x="571" y="455" type="line"/>
			<point x="478" y="528" type="line"/>
			<point x="283" y="278" type="line"/>
		</contour>
	</outline>
</glyph>
<glyph name="registered" format="2">
	<advance width="494"/>
	<unicode hex="00AE"/>
	<outline>
		<contour>
			<point x="23" y="615" type="curve"/>
			<point x="23" y="615" type="line"/>
			<point x="23" y="492"/>
			<point x="124" y="392"/>
			<point x="246" y="392" type="curve"/>
			<point x="371" y="392"/>
			<point x="471" y="492"/>
			<point x="471" y="615" type="curve"/>
			<point x="471" y="739"/>
			<point x="371" y="840"/>
			<point x="246" y="840" type="curve"/>
			<point x="124" y="840"/>
			<point x="23" y="739"/>
		</contour>
		<contour>
			<point x="83" y="615" type="curve"/>
			<point x="83" y="615" type="line"/>
			<point x="83" y="706"/>
			<point x="157" y="780"/>
			<point x="246" y="780" type="curve"/>
			<point x="338" y="780"/>
			<point x="411" y="706"/>
			<point x="411" y="615" type="curve"/>
			<point x="411" y="525"/>
			<point x="338" y="452"/>
			<point x="246" y="452" type="curve"/>
			<point x="157" y="452"/>
			<point x="83" y="525"/>
		</contour>
		<contour>
			<point x="251" y="720" type="curve"/>
			<point x="178" y="720" type="line"/>
			<point x="178" y="513" type="line"/>
			<point x="225" y="513" type="line"/>
			<point x="225" y="595" type="line"/>
			<point x="288" y="513" type="line"/>
			<point x="350" y="513" type="line"/>
			<point x="277" y="599" type="line"/>
			<point x="302" y="608"/>
			<point x="319" y="627"/>
			<point x="319" y="659" type="curve"/>
			<point x="319" y="699"/>
			<point x="290" y="720"/>
		</contour>
		<contour>
			<point x="231" y="628" type="curve"/>
			<point x="225" y="628" type="line"/>
			<point x="225" y="683" type="line"/>
			<point x="231" y="683" type="line" smooth="yes"/>
			<point x="248" y="683"/>
			<point x="268" y="681"/>
			<point x="268" y="655" type="curve"/>
			<point x="268" y="630"/>
			<point x="248" y="628"/>
		</contour>
	</outline>
</glyph>
<glyph name="macron" format="1">
  <advance width="548"/>
  <unicode hex="00AF"/>
  <outline>
    <contour>
      <point x="478" y="634" type="line"/>
      <point x="478" y="754" type="line"/>
      <point x="70" y="754" type="line"/>
      <point x="70" y="634" type="line"/>
    </contour>
    <contour>
      <point x="274" y="513" type="move" name="_top"/>
    </contour>
  </outline>
</glyph>
<glyph name="degree" format="2">
	<advance width="372"/>
	<unicode hex="00B0"/>
	<outline>
		<contour>
			<point x="70" y="772" type="curve"/>
			<point x="70" y="772" type="line"/>
			<point x="70" y="712"/>
			<point x="117" y="669"/>
			<point x="186" y="669" type="curve"/>
			<point x="254" y="669"/>
			<point x="302" y="712"/>
			<point x="302" y="772" type="curve"/>
			<point x="302" y="833"/>
			<point x="251" y="875"/>
			<point x="186" y="875" type="curve"/>
			<point x="121" y="875"/>
			<point x="70" y="833"/>
		</contour>
		<contour>
			<point x="143" y="772" type="curve"/>
			<point x="143" y="772" type="line"/>
			<point x="143" y="798"/>
			<point x="162" y="817"/>
			<point x="186" y="817" type="curve"/>
			<point x="211" y="817"/>
			<point x="230" y="798"/>
			<point x="230" y="772" type="curve"/>
			<point x="230" y="747"/>
			<point x="211" y="726"/>
			<point x="186" y="726" type="curve"/>
			<point x="160" y="726"/>
			<point x="143" y="747"/>
		</contour>
	</outline>
</glyph>
<glyph name="twosuperior" format="1">
  <advance width="267"/>
  <unicode hex="00B2"/>
  <outline>
    <contour>
      <point x="170" y="778"/>
      <point x="173" y="739"/>
      <point x="173" y="727" type="curve" smooth="yes"/>
      <point x="173" y="668"/>
      <point x="7" y="531"/>
      <point x="7" y="531" type="curve"/>
      <point x="7" y="513" type="line"/>
      <point x="258" y="513" type="line"/>
      <point x="258" y="577" type="line"/>
      <point x="139" y="577" type="line" smooth="yes"/>
      <point x="139" y="577"/>
      <point x="252" y="652"/>
      <point x="252" y="727" type="curve" smooth="yes"/>
      <point x="252" y="768"/>
      <point x="238" y="840"/>
      <point x="127" y="840" type="curve" smooth="yes"/>
      <point x="40" y="840"/>
      <point x="9" y="747"/>
      <point x="9" y="747" type="curve"/>
      <point x="70" y="717" type="line"/>
      <point x="70" y="717"/>
      <point x="92" y="778"/>
      <point x="127" y="778" type="curve" smooth="yes"/>
    </contour>
  </outline>
</glyph>
<glyph name="uni00B2" format="2">
	<advance width="267"/>
	<unicode hex="00B2"/>
	<outline>
		<contour>
			<point x="152" y="778" type="curve"/>
			<point x="152" y="778" type="line"/>
			<point x="195" y="778"/>
			<point x="198" y="739"/>
			<point x="198" y="727" type="curve"/>
			<point x="198" y="668"/>
			<point x="32" y="531"/>
			<point x="32" y="531" type="curve"/>
			<point x="32" y="513" type="line"/>
			<point x="283" y="513" type="line"/>
			<point x="283" y="577" type="line"/>
			<point x="164" y="577" type="line" smooth="yes"/>
			<point x="164" y="577"/>
			<point x="277" y="652"/>
			<point x="277" y="727" type="curve"/>
			<point x="277" y="768"/>
			<point x="263" y="840"/>
			<point x="152" y="840" type="curve"/>
			<point x="65" y="840"/>
			<point x="34" y="747"/>
			<point x="34" y="747" type="curve"/>
			<point x="95" y="717" type="line"/>
			<point x="95" y="717"/>
			<point x="117" y="778"/>
		</contour>
	</outline>
</glyph>
<glyph name="acute" format="1">
  <advance width="566"/>
  <unicode hex="00B4"/>
  <outline>
    <contour>
      <point x="430" y="725" type="line"/>
      <point x="339" y="840" type="line"/>
      <point x="136" y="664" type="line"/>
      <point x="192" y="587" type="line"/>
    </contour>
    <contour>
      <point x="283" y="513" type="move" name="_top"/>
    </contour>
  </outline>
</glyph>
<glyph name="paragraph" format="2">
	<advance width="708"/>
	<unicode hex="00B6"/>
	<outline>
		<contour>
			<point x="545" y="0" type="line"/>
			<point x="648" y="0" type="line"/>
			<point x="648" y="825" type="line"/>
			<point x="285" y="825" type="line" smooth="yes"/>
			<point x="124" y="825"/>
			<point x="23" y="712"/>
			<point x="23" y="571" type="curve"/>
			<point x="23" y="431"/>
			<point x="124" y="306"/>
			<point x="285" y="306" type="curve"/>
			<point x="381" y="306" type="line"/>
			<point x="381" y="0" type="line"/>
			<point x="484" y="0" type="line"/>
			<point x="484" y="721" type="line"/>
			<point x="545" y="721" type="line"/>
		</contour>
	</outline>
</glyph>
<glyph name="onequarter" format="1">
  <advance width="876"/>
  <unicode hex="00BC"/>
  <outline>
    <contour>
      <point x="101" y="0" type="line"/>
      <point x="219" y="0" type="line"/>
      <point x="699" y="825" type="line"/>
      <point x="581" y="825" type="line"/>
    </contour>
    <contour>
      <point x="652" y="480" type="line"/>
      <point x="422" y="134" type="line"/>
      <point x="422" y="101" type="line"/>
      <point x="658" y="101" type="line"/>
      <point x="658" y="0" type="line"/>
      <point x="760" y="0" type="line"/>
      <point x="760" y="101" type="line"/>
      <point x="816" y="101" type="line"/>
      <point x="816" y="197" type="line"/>
      <point x="760" y="197" type="line"/>
      <point x="760" y="480" type="line"/>
    </contour>
    <contour>
      <point x="571" y="197" type="line"/>
      <point x="656" y="334" type="line"/>
      <point x="658" y="334" type="line"/>
      <point x="658" y="197" type="line"/>
    </contour>
    <contour>
      <point x="139" y="345" type="line"/>
      <point x="248" y="345" type="line"/>
      <point x="248" y="825" type="line"/>
      <point x="196" y="825" type="line"/>
      <point x="60" y="737" type="line"/>
      <point x="60" y="628" type="line"/>
      <point x="139" y="680" type="line"/>
    </contour>
  </outline>
</glyph>
<glyph name="threequarters" format="1">
  <advance width="977"/>
  <unicode hex="00BE"/>
  <outline>
    <contour>
      <point x="202" y="0" type="line"/>
      <point x="320" y="0" type="line"/>
      <point x="800" y="825" type="line"/>
      <point x="682" y="825" type="line"/>
    </contour>
    <contour>
      <point x="142" y="685" type="line"/>
      <point x="142" y="685"/>
      <point x="153" y="743"/>
      <point x="212" y="743" type="curve" smooth="yes"/>
      <point x="242" y="743"/>
      <point x="270" y="721"/>
      <point x="270" y="691" type="curve" smooth="yes"/>
      <point x="270" y="657"/>
      <point x="242" y="632"/>
      <point x="214" y="632" type="curve" smooth="yes"/>
      <point x="191" y="632" type="line"/>
      <point x="191" y="562" type="line"/>
      <point x="191" y="562"/>
      <point x="200" y="565"/>
      <point x="211" y="565" type="curve" smooth="yes"/>
      <point x="249" y="565"/>
      <point x="279" y="537"/>
      <point x="279" y="497" type="curve" smooth="yes"/>
      <point x="279" y="457"/>
      <point x="250" y="435"/>
      <point x="211" y="435" type="curve" smooth="yes"/>
      <point x="141" y="435"/>
      <point x="135" y="506"/>
      <point x="135" y="506" type="curve"/>
      <point x="36" y="458" type="line"/>
      <point x="36" y="458"/>
      <point x="67" y="342"/>
      <point x="212" y="342" type="curve" smooth="yes"/>
      <point x="312" y="342"/>
      <point x="386" y="407"/>
      <point x="386" y="497" type="curve" smooth="yes"/>
      <point x="386" y="546"/>
      <point x="362" y="582"/>
      <point x="326" y="604" type="curve"/>
      <point x="352" y="624"/>
      <point x="367" y="653"/>
      <point x="367" y="692" type="curve" smooth="yes"/>
      <point x="367" y="772"/>
      <point x="303" y="828"/>
      <point x="214" y="828" type="curve" smooth="yes"/>
      <point x="82" y="828"/>
      <point x="58" y="726"/>
      <point x="58" y="726" type="curve"/>
    </contour>
    <contour>
      <point x="753" y="480" type="line"/>
      <point x="523" y="134" type="line"/>
      <point x="523" y="101" type="line"/>
      <point x="759" y="101" type="line"/>
      <point x="759" y="0" type="line"/>
      <point x="861" y="0" type="line"/>
      <point x="861" y="101" type="line"/>
      <point x="917" y="101" type="line"/>
      <point x="917" y="197" type="line"/>
      <point x="861" y="197" type="line"/>
      <point x="861" y="480" type="line"/>
    </contour>
    <contour>
      <point x="672" y="197" type="line"/>
      <point x="757" y="334" type="line"/>
      <point x="759" y="334" type="line"/>
      <point x="759" y="197" type="line"/>
    </contour>
  </outline>
</glyph>
<glyph name="questiondown" format="2">
	<advance width="596"/>
	<unicode hex="00BF"/>
	<outline>
		<contour>
			<point x="426" y="-15" type="curve"/>
			<point x="426" y="-15" type="line"/>
			<point x="573" y="-86" type="line"/>
			<point x="573" y="-91"/>
			<point x="530" y="-275"/>
			<point x="307" y="-275" type="curve"/>
			<point x="157" y="-275"/>
			<point x="23" y="-177"/>
			<point x="23" y="-36" type="curve"/>
			<point x="23" y="62"/>
			<point x="96" y="122"/>
			<point x="192" y="163" type="curve"/>
			<point x="226" y="178"/>
			<point x="227" y="206"/>
			<point x="227" y="239" type="curve"/>
			<point x="227" y="295" type="line"/>
			<point x="392" y="295" type="line"/>
			<point x="392" y="186" type="line" smooth="yes"/>
			<point x="392" y="142"/>
			<point x="390" y="106"/>
			<point x="345" y="77" type="curve"/>
			<point x="284" y="38"/>
			<point x="227" y="35"/>
			<point x="227" y="-36" type="curve"/>
			<point x="227" y="-84"/>
			<point x="263" y="-118"/>
			<point x="308" y="-118" type="curve"/>
			<point x="380" y="-118"/>
			<point x="415" y="-58"/>
		</contour>
		<contour>
			<point x="310" y="351" type="curve"/>
			<point x="310" y="351" type="line"/>
			<point x="373" y="351"/>
			<point x="424" y="402"/>
			<point x="424" y="466" type="curve"/>
			<point x="424" y="529"/>
			<point x="373" y="580"/>
			<point x="310" y="580" type="curve"/>
			<point x="246" y="580"/>
			<point x="195" y="529"/>
			<point x="195" y="466" type="curve"/>
			<point x="195" y="402"/>
			<point x="246" y="351"/>
		</contour>
	</outline>
</glyph>
<glyph name="Agrave" format="2">
	<advance width="784"/>
	<unicode hex="00C0"/>
	<outline>
		<contour>
			<point x="479" y="825" type="line"/>
			<point x="305" y="825" type="line"/>
			<point x="-28" y="0" type="line"/>
			<point x="174" y="0" type="line"/>
			<point x="235" y="165" type="line"/>
			<point x="549" y="165" type="line"/>
			<point x="610" y="0" type="line"/>
			<point x="812" y="0" type="line"/>
		</contour>
		<contour>
			<point x="485" y="330" type="line"/>
			<point x="299" y="330" type="line"/>
			<point x="391" y="570" type="line"/>
			<point x="393" y="570" type="line"/>
		</contour>
		<contour>
			<point x="247" y="1152" type="line"/>
			<point x="156" y="1037" type="line"/>
			<point x="394" y="899" type="line"/>
			<point x="450" y="976" type="line"/>
		</contour>
	</outline>
</glyph>
<glyph name="Aacute" format="1">
  <advance width="830"/>
  <unicode hex="00C1"/>
  <outline>
    <contour>
      <point x="-5" y="0" type="line"/>
      <point x="197" y="0" type="line"/>
      <point x="258" y="165" type="line"/>
      <point x="572" y="165" type="line"/>
      <point x="633" y="0" type="line"/>
      <point x="835" y="0" type="line"/>
      <point x="502" y="825" type="line"/>
      <point x="328" y="825" type="line"/>
    </contour>
    <contour>
      <point x="414" y="570" type="line"/>
      <point x="416" y="570" type="line"/>
      <point x="508" y="330" type="line"/>
      <point x="322" y="330" type="line"/>
    </contour>
    <contour>
      <point x="650" y="1037" type="line"/>
      <point x="559" y="1152" type="line"/>
      <point x="356" y="976" type="line"/>
      <point x="412" y="899" type="line"/>
    </contour>
  </outline>
</glyph>
<glyph name="Acircumflex" format="1">
  <advance width="830"/>
  <unicode hex="00C2"/>
  <outline>
    <contour>
      <point x="-5" y="0" type="line"/>
      <point x="197" y="0" type="line"/>
      <point x="258" y="165" type="line"/>
      <point x="572" y="165" type="line"/>
      <point x="633" y="0" type="line"/>
      <point x="835" y="0" type="line"/>
      <point x="502" y="825" type="line"/>
      <point x="328" y="825" type="line"/>
    </contour>
    <contour>
      <point x="414" y="570" type="line"/>
      <point x="416" y="570" type="line"/>
      <point x="508" y="330" type="line"/>
      <point x="322" y="330" type="line"/>
    </contour>
    <contour>
      <point x="415" y="1011" type="line"/>
      <point x="568" y="899" type="line"/>
      <point x="636" y="990" type="line"/>
      <point x="415" y="1152" type="line"/>
      <point x="194" y="990" type="line"/>
      <point x="262" y="899" type="line"/>
    </contour>
  </outline>
</glyph>
<glyph name="Atilde" format="1">
  <advance width="830"/>
  <unicode hex="00C3"/>
  <outline>
    <contour>
      <point x="-5" y="0" type="line"/>
      <point x="197" y="0" type="line"/>
      <point x="258" y="165" type="line"/>
      <point x="572" y="165" type="line"/>
      <point x="633" y="0" type="line"/>
      <point x="835" y="0" type="line"/>
      <point x="502" y="825" type="line"/>
      <point x="328" y="825" type="line"/>
    </contour>
    <contour>
      <point x="414" y="570" type="line"/>
      <point x="416" y="570" type="line"/>
      <point x="508" y="330" type="line"/>
      <point x="322" y="330" type="line"/>
    </contour>
    <contour>
      <point x="406" y="954"/>
      <point x="471" y="927"/>
      <point x="510" y="927" type="curve" smooth="yes"/>
      <point x="620" y="927"/>
      <point x="646" y="1099"/>
      <point x="646" y="1099" type="curve" smooth="yes"/>
      <point x="545" y="1099" type="line" smooth="yes"/>
      <point x="545" y="1099"/>
      <point x="532" y="1053"/>
      <point x="500" y="1053" type="curve" smooth="yes"/>
      <point x="464" y="1053"/>
      <point x="424" y="1072"/>
      <point x="424" y="1072" type="curve" smooth="yes"/>
      <point x="424" y="1072"/>
      <point x="359" y="1099"/>
      <point x="320" y="1099" type="curve" smooth="yes"/>
      <point x="210" y="1099"/>
      <point x="184" y="927"/>
      <point x="184" y="927" type="curve"/>
      <point x="285" y="927" type="line"/>
      <point x="285" y="927"/>
      <point x="298" y="973"/>
      <point x="330" y="973" type="curve" smooth="yes"/>
      <point x="366" y="973"/>
      <point x="406" y="954"/>
      <point x="406" y="954" type="curve" smooth="yes"/>
    </contour>
  </outline>
</glyph>
<glyph name="Adieresis" format="2">
	<advance width="784"/>
	<unicode hex="00C4"/>
	<outline>
		<contour>
			<point x="479" y="825" type="line"/>
			<point x="305" y="825" type="line"/>
			<point x="-28" y="0" type="line"/>
			<point x="174" y="0" type="line"/>
			<point x="235" y="165" type="line"/>
			<point x="549" y="165" type="line"/>
			<point x="610" y="0" type="line"/>
			<point x="812" y="0" type="line"/>
		</contour>
		<contour>
			<point x="485" y="330" type="line"/>
			<point x="299" y="330" type="line"/>
			<point x="391" y="570" type="line"/>
			<point x="393" y="570" type="line"/>
		</contour>
		<contour>
			<point x="273" y="1103" type="curve"/>
			<point x="273" y="1103" type="line"/>
			<point x="222" y="1103"/>
			<point x="181" y="1062"/>
			<point x="181" y="1011" type="curve"/>
			<point x="181" y="960"/>
			<point x="222" y="919"/>
			<point x="273" y="919" type="curve"/>
			<point x="324" y="919"/>
			<point x="365" y="960"/>
			<point x="365" y="1011" type="curve"/>
			<point x="365" y="1062"/>
			<point x="324" y="1103"/>
		</contour>
		<contour>
			<point x="510" y="1103" type="curve"/>
			<point x="510" y="1103" type="line"/>
			<point x="459" y="1103"/>
			<point x="418" y="1062"/>
			<point x="418" y="1011" type="curve"/>
			<point x="418" y="960"/>
			<point x="459" y="919"/>
			<point x="510" y="919" type="curve"/>
			<point x="561" y="919"/>
			<point x="602" y="960"/>
			<point x="602" y="1011" type="curve"/>
			<point x="602" y="1062"/>
			<point x="561" y="1103"/>
		</contour>
	</outline>
</glyph>
<glyph name="Adieresis" format="1">
  <advance width="830"/>
  <unicode hex="00C4"/>
  <outline>
    <contour>
      <point x="-5" y="0" type="line"/>
      <point x="197" y="0" type="line"/>
      <point x="258" y="165" type="line"/>
      <point x="572" y="165" type="line"/>
      <point x="633" y="0" type="line"/>
      <point x="835" y="0" type="line"/>
      <point x="502" y="825" type="line"/>
      <point x="328" y="825" type="line"/>
    </contour>
    <contour>
      <point x="414" y="570" type="line"/>
      <point x="416" y="570" type="line"/>
      <point x="508" y="330" type="line"/>
      <point x="322" y="330" type="line"/>
    </contour>
    <contour>
      <point x="245" y="1103"/>
      <point x="204" y="1062"/>
      <point x="204" y="1011" type="curve" smooth="yes"/>
      <point x="204" y="960"/>
      <point x="245" y="919"/>
      <point x="296" y="919" type="curve" smooth="yes"/>
      <point x="347" y="919"/>
      <point x="388" y="960"/>
      <point x="388" y="1011" type="curve" smooth="yes"/>
      <point x="388" y="1062"/>
      <point x="347" y="1103"/>
      <point x="296" y="1103" type="curve" smooth="yes"/>
    </contour>
    <contour>
      <point x="482" y="1103"/>
      <point x="441" y="1062"/>
      <point x="441" y="1011" type="curve" smooth="yes"/>
      <point x="441" y="960"/>
      <point x="482" y="919"/>
      <point x="533" y="919" type="curve" smooth="yes"/>
      <point x="584" y="919"/>
      <point x="625" y="960"/>
      <point x="625" y="1011" type="curve" smooth="yes"/>
      <point x="625" y="1062"/>
      <point x="584" y="1103"/>
      <point x="533" y="1103" type="curve" smooth="yes"/>
    </contour>
  </outline>
</glyph>
<glyph name="Aring" format="2">
	<advance width="784"/>
	<unicode hex="00C5"/>
	<outline>
		<contour>
			<point x="479" y="825" type="line"/>
			<point x="305" y="825" type="line"/>
			<point x="-28" y="0" type="line"/>
			<point x="174" y="0" type="line"/>
			<point x="235" y="165" type="line"/>
			<point x="549" y="165" type="line"/>
			<point x="610" y="0" type="line"/>
			<point x="812" y="0" type="line"/>
		</contour>
		<contour>
			<point x="485" y="330" type="line"/>
			<point x="299" y="330" type="line"/>
			<point x="391" y="570" type="line"/>
			<point x="393" y="570" type="line"/>
		</contour>
		<contour>
			<point x="231" y="1045" type="curve"/>
			<point x="231" y="1045" type="line"/>
			<point x="231" y="961"/>
			<point x="296" y="902"/>
			<point x="392" y="902" type="curve"/>
			<point x="486" y="902"/>
			<point x="553" y="961"/>
			<point x="553" y="1045" type="curve"/>
			<point x="553" y="1128"/>
			<point x="483" y="1187"/>
			<point x="392" y="1187" type="curve"/>
			<point x="302" y="1187"/>
			<point x="231" y="1128"/>
		</contour>
		<contour>
			<point x="331" y="1045" type="curve"/>
			<point x="331" y="1045" type="line"/>
			<point x="331" y="1079"/>
			<point x="359" y="1107"/>
			<point x="392" y="1107" type="curve"/>
			<point x="426" y="1107"/>
			<point x="453" y="1079"/>
			<point x="453" y="1045" type="curve"/>
			<point x="453" y="1010"/>
			<point x="427" y="981"/>
			<point x="392" y="981" type="curve"/>
			<point x="356" y="981"/>
			<point x="331" y="1010"/>
		</contour>
	</outline>
</glyph>
<glyph name="Aring" format="1">
  <advance width="830"/>
  <unicode hex="00C5"/>
  <outline>
    <contour>
      <point x="-5" y="0" type="line"/>
      <point x="197" y="0" type="line"/>
      <point x="258" y="165" type="line"/>
      <point x="572" y="165" type="line"/>
      <point x="633" y="0" type="line"/>
      <point x="835" y="0" type="line"/>
      <point x="502" y="825" type="line"/>
      <point x="328" y="825" type="line"/>
    </contour>
    <contour>
      <point x="414" y="570" type="line"/>
      <point x="416" y="570" type="line"/>
      <point x="508" y="330" type="line"/>
      <point x="322" y="330" type="line"/>
    </contour>
    <contour>
      <point x="254" y="961"/>
      <point x="319" y="902"/>
      <point x="415" y="902" type="curve" smooth="yes"/>
      <point x="509" y="902"/>
      <point x="576" y="961"/>
      <point x="576" y="1045" type="curve" smooth="yes"/>
      <point x="576" y="1128"/>
      <point x="506" y="1187"/>
      <point x="415" y="1187" type="curve" smooth="yes"/>
      <point x="325" y="1187"/>
      <point x="254" y="1128"/>
      <point x="254" y="1045" type="curve" smooth="yes"/>
    </contour>
    <contour>
      <point x="354" y="1079"/>
      <point x="382" y="1107"/>
      <point x="415" y="1107" type="curve" smooth="yes"/>
      <point x="449" y="1107"/>
      <point x="476" y="1079"/>
      <point x="476" y="1045" type="curve" smooth="yes"/>
      <point x="476" y="1010"/>
      <point x="450" y="981"/>
      <point x="415" y="981" type="curve" smooth="yes"/>
      <point x="379" y="981"/>
      <point x="354" y="1010"/>
      <point x="354" y="1045" type="curve" smooth="yes"/>
    </contour>
  </outline>
</glyph>
<glyph name="AE" format="2">
	<advance width="980"/>
	<unicode hex="00C6"/>
	<outline>
		<contour>
			<point x="267" y="165" type="line"/>
			<point x="460" y="165" type="line"/>
			<point x="460" y="0" type="line"/>
			<point x="932" y="0" type="line"/>
			<point x="932" y="165" type="line"/>
			<point x="648" y="165" type="line"/>
			<point x="648" y="331" type="line"/>
			<point x="920" y="331" type="line"/>
			<point x="920" y="496" type="line"/>
			<point x="648" y="496" type="line"/>
			<point x="648" y="660" type="line"/>
			<point x="932" y="660" type="line"/>
			<point x="932" y="825" type="line"/>
			<point x="372" y="825" type="line"/>
			<point x="-5" y="0" type="line"/>
			<point x="197" y="0" type="line"/>
		</contour>
		<contour>
			<point x="460" y="330" type="line"/>
			<point x="333" y="330" type="line"/>
			<point x="458" y="632" type="line"/>
			<point x="460" y="632" type="line"/>
		</contour>
	</outline>
</glyph>
<glyph name="Egrave" format="2">
	<advance width="580"/>
	<unicode hex="00C8"/>
	<outline>
		<contour>
			<point x="532" y="825" type="line"/>
			<point x="60" y="825" type="line"/>
			<point x="60" y="0" type="line"/>
			<point x="532" y="0" type="line"/>
			<point x="532" y="165" type="line"/>
			<point x="248" y="165" type="line"/>
			<point x="248" y="331" type="line"/>
			<point x="520" y="331" type="line"/>
			<point x="520" y="496" type="line"/>
			<point x="248" y="496" type="line"/>
			<point x="248" y="660" type="line"/>
			<point x="532" y="660" type="line"/>
		</contour>
		<contour>
			<point x="145" y="1152" type="line"/>
			<point x="54" y="1037" type="line"/>
			<point x="292" y="899" type="line"/>
			<point x="348" y="976" type="line"/>
		</contour>
	</outline>
</glyph>
<glyph name="Eacute" format="2">
	<advance width="580"/>
	<unicode hex="00C9"/>
	<outline>
		<contour>
			<point x="532" y="825" type="line"/>
			<point x="60" y="825" type="line"/>
			<point x="60" y="0" type="line"/>
			<point x="532" y="0" type="line"/>
			<point x="532" y="165" type="line"/>
			<point x="248" y="165" type="line"/>
			<point x="248" y="331" type="line"/>
			<point x="520" y="331" type="line"/>
			<point x="520" y="496" type="line"/>
			<point x="248" y="496" type="line"/>
			<point x="248" y="660" type="line"/>
			<point x="532" y="660" type="line"/>
		</contour>
		<contour>
			<point x="172" y="976" type="line"/>
			<point x="228" y="899" type="line"/>
			<point x="466" y="1037" type="line"/>
			<point x="375" y="1152" type="line"/>
		</contour>
	</outline>
</glyph>
<glyph name="Icircumflex" format="2">
	<advance width="308"/>
	<unicode hex="00CE"/>
	<outline>
		<contour>
			<point x="248" y="825" type="line"/>
			<point x="60" y="825" type="line"/>
			<point x="60" y="0" type="line"/>
			<point x="248" y="0" type="line"/>
		</contour>
		<contour>
			<point x="-67" y="990" type="line"/>
			<point x="1" y="899" type="line"/>
			<point x="154" y="1011" type="line"/>
			<point x="307" y="899" type="line"/>
			<point x="375" y="990" type="line"/>
			<point x="154" y="1152" type="line"/>
		</contour>
	</outline>
</glyph>
<glyph name="Eth" format="1">
  <advance width="738"/>
  <unicode hex="D0"/>
  <outline>
    <contour>
      <point x="60" y="0" type="line"/>
      <point x="299" y="0" type="line" smooth="yes"/>
      <point x="525" y="0"/>
      <point x="714" y="171"/>
      <point x="715" y="412" type="curve" smooth="yes"/>
      <point x="715" y="653"/>
      <point x="526" y="825"/>
      <point x="299" y="825" type="curve" smooth="yes"/>
      <point x="60" y="825" type="line"/>
      <point x="60" y="489" type="line"/>
      <point x="-22" y="489" type="line"/>
      <point x="-22" y="336" type="line"/>
      <point x="60" y="336" type="line"/>
    </contour>
    <contour>
      <point x="512" y="413" type="line"/>
      <point x="512" y="275"/>
      <point x="417" y="168"/>
      <point x="277" y="168" type="curve" smooth="yes"/>
      <point x="248" y="168" type="line"/>
      <point x="248" y="336" type="line"/>
      <point x="357" y="336" type="line"/>
      <point x="357" y="489" type="line"/>
      <point x="248" y="489" type="line"/>
      <point x="248" y="657" type="line"/>
      <point x="277" y="657" type="line" smooth="yes"/>
      <point x="416" y="657"/>
      <point x="511" y="550"/>
      <point x="512" y="413" type="curve"/>
    </contour>
  </outline>
</glyph>
<glyph name="Odieresis" format="2">
	<advance width="877"/>
	<unicode hex="00D6"/>
	<outline>
		<contour>
			<point x="226" y="413" type="curve"/>
			<point x="226" y="413" type="line"/>
			<point x="226" y="536"/>
			<point x="294" y="659"/>
			<point x="439" y="659" type="curve"/>
			<point x="585" y="659"/>
			<point x="651" y="536"/>
			<point x="651" y="413" type="curve"/>
			<point x="651" y="290"/>
			<point x="589" y="167"/>
			<point x="439" y="167" type="curve"/>
			<point x="285" y="167"/>
			<point x="226" y="290"/>
		</contour>
		<contour>
			<point x="23" y="413" type="curve"/>
			<point x="23" y="413" type="line"/>
			<point x="23" y="172"/>
			<point x="195" y="-15"/>
			<point x="439" y="-15" type="curve"/>
			<point x="676" y="-15"/>
			<point x="854" y="172"/>
			<point x="854" y="413" type="curve"/>
			<point x="854" y="654"/>
			<point x="668" y="840"/>
			<point x="439" y="840" type="curve"/>
			<point x="212" y="840"/>
			<point x="23" y="654"/>
		</contour>
		<contour>
			<point x="320" y="1103" type="curve"/>
			<point x="320" y="1103" type="line"/>
			<point x="269" y="1103"/>
			<point x="228" y="1062"/>
			<point x="228" y="1011" type="curve"/>
			<point x="228" y="960"/>
			<point x="269" y="919"/>
			<point x="320" y="919" type="curve"/>
			<point x="371" y="919"/>
			<point x="412" y="960"/>
			<point x="412" y="1011" type="curve"/>
			<point x="412" y="1062"/>
			<point x="371" y="1103"/>
		</contour>
		<contour>
			<point x="557" y="1103" type="curve"/>
			<point x="557" y="1103" type="line"/>
			<point x="506" y="1103"/>
			<point x="465" y="1062"/>
			<point x="465" y="1011" type="curve"/>
			<point x="465" y="960"/>
			<point x="506" y="919"/>
			<point x="557" y="919" type="curve"/>
			<point x="608" y="919"/>
			<point x="649" y="960"/>
			<point x="649" y="1011" type="curve"/>
			<point x="649" y="1062"/>
			<point x="608" y="1103"/>
		</contour>
	</outline>
</glyph>
<glyph name="multiply" format="2">
	<advance width="633"/>
	<unicode hex="00D7"/>
	<outline>
		<contour>
			<point x="577" y="262" type="line"/>
			<point x="424" y="414" type="line"/>
			<point x="577" y="567" type="line"/>
			<point x="469" y="675" type="line"/>
			<point x="316" y="523" type="line"/>
			<point x="164" y="675" type="line"/>
			<point x="56" y="568" type="line"/>
			<point x="208" y="415" type="line"/>
			<point x="56" y="263" type="line"/>
			<point x="164" y="154" type="line"/>
			<point x="317" y="307" type="line"/>
			<point x="470" y="154" type="line"/>
		</contour>
	</outline>
</glyph>
<glyph name="Oslash" format="1">
  <advance width="877"/>
  <unicode hex="D8"/>
  <outline>
    <contour>
      <point x="226" y="413" type="line"/>
      <point x="226" y="536"/>
      <point x="294" y="659"/>
      <point x="439" y="659" type="curve" smooth="yes"/>
      <point x="585" y="659"/>
      <point x="651" y="536"/>
      <point x="651" y="413" type="curve" smooth="yes"/>
      <point x="651" y="290"/>
      <point x="589" y="167"/>
      <point x="439" y="167" type="curve" smooth="yes"/>
      <point x="285" y="167"/>
      <point x="226" y="290"/>
      <point x="226" y="413" type="curve" smooth="yes"/>
    </contour>
    <contour>
      <point x="23" y="413" type="line" smooth="yes"/>
      <point x="23" y="172"/>
      <point x="195" y="-15"/>
      <point x="439" y="-15" type="curve" smooth="yes"/>
      <point x="676" y="-15"/>
      <point x="854" y="172"/>
      <point x="854" y="413" type="curve" smooth="yes"/>
      <point x="854" y="654"/>
      <point x="668" y="840"/>
      <point x="439" y="840" type="curve" smooth="yes"/>
      <point x="212" y="840"/>
      <point x="23" y="654"/>
      <point x="23" y="413" type="curve" smooth="yes"/>
    </contour>
    <contour>
      <point x="54" y="43" type="line"/>
      <point x="180" y="-26" type="line"/>
      <point x="809" y="765" type="line"/>
      <point x="697" y="851" type="line"/>
    </contour>
  </outline>
</glyph>
<glyph name="Uacute" format="2">
	<advance width="744"/>
	<unicode hex="00DA"/>
	<outline>
		<contour>
			<point x="506" y="348" type="curve"/>
			<point x="506" y="348" type="line"/>
			<point x="506" y="825" type="line"/>
			<point x="694" y="825" type="line"/>
			<point x="694" y="293" type="line" smooth="yes"/>
			<point x="694" y="89"/>
			<point x="582" y="-15"/>
			<point x="372" y="-15" type="curve"/>
			<point x="162" y="-15"/>
			<point x="50" y="89"/>
			<point x="50" y="293" type="curve"/>
			<point x="50" y="825" type="line"/>
			<point x="238" y="825" type="line"/>
			<point x="238" y="348" type="line" smooth="yes"/>
			<point x="238" y="210"/>
			<point x="280" y="170"/>
			<point x="372" y="170" type="curve"/>
			<point x="464" y="170"/>
			<point x="506" y="210"/>
		</contour>
		<contour>
			<point x="254" y="976" type="line"/>
			<point x="310" y="899" type="line"/>
			<point x="548" y="1037" type="line"/>
			<point x="457" y="1152" type="line"/>
		</contour>
	</outline>
</glyph>
<glyph name="Udieresis" format="2">
	<advance width="744"/>
	<unicode hex="00DC"/>
	<outline>
		<contour>
			<point x="506" y="348" type="curve"/>
			<point x="506" y="348" type="line"/>
			<point x="506" y="825" type="line"/>
			<point x="694" y="825" type="line"/>
			<point x="694" y="293" type="line" smooth="yes"/>
			<point x="694" y="89"/>
			<point x="582" y="-15"/>
			<point x="372" y="-15" type="curve"/>
			<point x="162" y="-15"/>
			<point x="50" y="89"/>
			<point x="50" y="293" type="curve"/>
			<point x="50" y="825" type="line"/>
			<point x="238" y="825" type="line"/>
			<point x="238" y="348" type="line" smooth="yes"/>
			<point x="238" y="210"/>
			<point x="280" y="170"/>
			<point x="372" y="170" type="curve"/>
			<point x="464" y="170"/>
			<point x="506" y="210"/>
		</contour>
		<contour>
			<point x="253" y="1103" type="curve"/>
			<point x="253" y="1103" type="line"/>
			<point x="202" y="1103"/>
			<point x="161" y="1062"/>
			<point x="161" y="1011" type="curve"/>
			<point x="161" y="960"/>
			<point x="202" y="919"/>
			<point x="253" y="919" type="curve"/>
			<point x="304" y="919"/>
			<point x="345" y="960"/>
			<point x="345" y="1011" type="curve"/>
			<point x="345" y="1062"/>
			<point x="304" y="1103"/>
		</contour>
		<contour>
			<point x="490" y="1103" type="curve"/>
			<point x="490" y="1103" type="line"/>
			<point x="439" y="1103"/>
			<point x="398" y="1062"/>
			<point x="398" y="1011" type="curve"/>
			<point x="398" y="960"/>
			<point x="439" y="919"/>
			<point x="490" y="919" type="curve"/>
			<point x="541" y="919"/>
			<point x="582" y="960"/>
			<point x="582" y="1011" type="curve"/>
			<point x="582" y="1062"/>
			<point x="541" y="1103"/>
		</contour>
	</outline>
</glyph>
<glyph name="Udieresis" format="1">
  <advance width="744"/>
  <unicode hex="00DC"/>
  <outline>
    <contour>
      <point x="506" y="825" type="line"/>
      <point x="694" y="825" type="line"/>
      <point x="694" y="294" type="line" smooth="yes"/>
      <point x="694" y="90"/>
      <point x="582" y="-14"/>
      <point x="372" y="-15" type="curve" smooth="yes"/>
      <point x="162" y="-14"/>
      <point x="50" y="90"/>
      <point x="50" y="294" type="curve" smooth="yes"/>
      <point x="50" y="825" type="line"/>
      <point x="238" y="825" type="line"/>
      <point x="238" y="349" type="line" smooth="yes"/>
      <point x="238" y="211"/>
      <point x="280" y="171"/>
      <point x="372" y="169" type="curve"/>
      <point x="464" y="171"/>
      <point x="506" y="211"/>
      <point x="506" y="349" type="curve" smooth="yes"/>
    </contour>
    <contour>
      <point x="202" y="1103"/>
      <point x="161" y="1062"/>
      <point x="161" y="1011" type="curve" smooth="yes"/>
      <point x="161" y="960"/>
      <point x="202" y="919"/>
      <point x="253" y="919" type="curve" smooth="yes"/>
      <point x="304" y="919"/>
      <point x="345" y="960"/>
      <point x="345" y="1011" type="curve" smooth="yes"/>
      <point x="345" y="1062"/>
      <point x="304" y="1103"/>
      <point x="253" y="1103" type="curve" smooth="yes"/>
    </contour>
    <contour>
      <point x="439" y="1103"/>
      <point x="398" y="1062"/>
      <point x="398" y="1011" type="curve" smooth="yes"/>
      <point x="398" y="960"/>
      <point x="439" y="919"/>
      <point x="490" y="919" type="curve" smooth="yes"/>
      <point x="541" y="919"/>
      <point x="582" y="960"/>
      <point x="582" y="1011" type="curve" smooth="yes"/>
      <point x="582" y="1062"/>
      <point x="541" y="1103"/>
      <point x="490" y="1103" type="curve" smooth="yes"/>
    </contour>
  </outline>
</glyph>
<glyph name="Yacute" format="2">
	<advance width="736"/>
	<unicode hex="00DD"/>
	<outline>
		<contour>
			<point x="-30" y="825" type="line"/>
			<point x="274" y="370" type="line"/>
			<point x="274" y="0" type="line"/>
			<point x="462" y="0" type="line"/>
			<point x="462" y="370" type="line"/>
			<point x="766" y="825" type="line"/>
			<point x="540" y="825" type="line"/>
			<point x="368" y="561" type="line"/>
			<point x="196" y="825" type="line"/>
		</contour>
		<contour>
			<point x="251" y="976" type="line"/>
			<point x="307" y="899" type="line"/>
			<point x="545" y="1037" type="line"/>
			<point x="454" y="1152" type="line"/>
		</contour>
	</outline>
</glyph>
<glyph name="Yacute" format="1">
  <advance width="764"/>
  <unicode hex="00DD"/>
  <outline>
    <contour>
      <point x="288" y="0" type="line"/>
      <point x="476" y="0" type="line"/>
      <point x="476" y="370" type="line"/>
      <point x="780" y="825" type="line"/>
      <point x="554" y="825" type="line"/>
      <point x="382" y="561" type="line"/>
      <point x="210" y="825" type="line"/>
      <point x="-16" y="825" type="line"/>
      <point x="288" y="370" type="line"/>
    </contour>
    <contour>
      <point x="559" y="1037" type="line"/>
      <point x="468" y="1152" type="line"/>
      <point x="265" y="976" type="line"/>
      <point x="321" y="899" type="line"/>
    </contour>
  </outline>
</glyph>
<glyph name="atilde" format="2">
	<advance width="683"/>
	<unicode hex="00E3"/>
	<outline>
		<contour>
			<point x="23" y="256" type="curve"/>
			<point x="23" y="256" type="line"/>
			<point x="23" y="406"/>
			<point x="128" y="528"/>
			<point x="278" y="528" type="curve"/>
			<point x="347" y="528"/>
			<point x="404" y="505"/>
			<point x="446" y="464" type="curve"/>
			<point x="446" y="513" type="line"/>
			<point x="623" y="513" type="line"/>
			<point x="623" y="0" type="line"/>
			<point x="448" y="0" type="line"/>
			<point x="448" y="58" type="line"/>
			<point x="446" y="58" type="line"/>
			<point x="408" y="16"/>
			<point x="348" y="-15"/>
			<point x="278" y="-15" type="curve"/>
			<point x="128" y="-15"/>
			<point x="23" y="106"/>
		</contour>
		<contour>
			<point x="211" y="256" type="curve"/>
			<point x="211" y="256" type="line"/>
			<point x="211" y="186"/>
			<point x="259" y="136"/>
			<point x="331" y="136" type="curve"/>
			<point x="400" y="136"/>
			<point x="450" y="186"/>
			<point x="450" y="256" type="curve"/>
			<point x="450" y="327"/>
			<point x="397" y="377"/>
			<point x="331" y="377" type="curve"/>
			<point x="264" y="377"/>
			<point x="211" y="327"/>
		</contour>
		<contour>
			<point x="332" y="642" type="curve"/>
			<point x="332" y="642" type="line"/>
			<point x="332" y="642"/>
			<point x="397" y="615"/>
			<point x="436" y="615" type="curve"/>
			<point x="546" y="615"/>
			<point x="572" y="787"/>
			<point x="572" y="787" type="curve"/>
			<point x="471" y="787" type="line" smooth="yes"/>
			<point x="471" y="787"/>
			<point x="458" y="741"/>
			<point x="426" y="741" type="curve"/>
			<point x="390" y="741"/>
			<point x="350" y="760"/>
			<point x="350" y="760" type="curve"/>
			<point x="350" y="760"/>
			<point x="285" y="787"/>
			<point x="246" y="787" type="curve"/>
			<point x="136" y="787"/>
			<point x="110" y="615"/>
			<point x="110" y="615" type="curve"/>
			<point x="211" y="615" type="line"/>
			<point x="211" y="615"/>
			<point x="224" y="661"/>
			<point x="256" y="661" type="curve"/>
			<point x="292" y="661"/>
			<point x="332" y="642"/>
		</contour>
	</outline>
</glyph>
<glyph name="adieresis" format="2">
	<advance width="683"/>
	<unicode hex="00E4"/>
	<outline>
		<contour>
			<point x="23" y="256" type="curve"/>
			<point x="23" y="256" type="line"/>
			<point x="23" y="406"/>
			<point x="128" y="528"/>
			<point x="278" y="528" type="curve"/>
			<point x="347" y="528"/>
			<point x="404" y="505"/>
			<point x="446" y="464" type="curve"/>
			<point x="446" y="513" type="line"/>
			<point x="623" y="513" type="line"/>
			<point x="623" y="0" type="line"/>
			<point x="448" y="0" type="line"/>
			<point x="448" y="58" type="line"/>
			<point x="446" y="58" type="line"/>
			<point x="408" y="16"/>
			<point x="348" y="-15"/>
			<point x="278" y="-15" type="curve"/>
			<point x="128" y="-15"/>
			<point x="23" y="106"/>
		</contour>
		<contour>
			<point x="211" y="256" type="curve"/>
			<point x="211" y="256" type="line"/>
			<point x="211" y="186"/>
			<point x="259" y="136"/>
			<point x="331" y="136" type="curve"/>
			<point x="400" y="136"/>
			<point x="450" y="186"/>
			<point x="450" y="256" type="curve"/>
			<point x="450" y="327"/>
			<point x="397" y="377"/>
			<point x="331" y="377" type="curve"/>
			<point x="264" y="377"/>
			<point x="211" y="327"/>
		</contour>
		<contour>
			<point x="223" y="791" type="curve"/>
			<point x="223" y="791" type="line"/>
			<point x="172" y="791"/>
			<point x="131" y="750"/>
			<point x="131" y="699" type="curve"/>
			<point x="131" y="648"/>
			<point x="172" y="607"/>
			<point x="223" y="607" type="curve"/>
			<point x="274" y="607"/>
			<point x="315" y="648"/>
			<point x="315" y="699" type="curve"/>
			<point x="315" y="750"/>
			<point x="274" y="791"/>
		</contour>
		<contour>
			<point x="460" y="791" type="curve"/>
			<point x="460" y="791" type="line"/>
			<point x="409" y="791"/>
			<point x="368" y="750"/>
			<point x="368" y="699" type="curve"/>
			<point x="368" y="648"/>
			<point x="409" y="607"/>
			<point x="460" y="607" type="curve"/>
			<point x="511" y="607"/>
			<point x="552" y="648"/>
			<point x="552" y="699" type="curve"/>
			<point x="552" y="750"/>
			<point x="511" y="791"/>
		</contour>
	</outline>
</glyph>
<glyph name="aring" format="2">
	<advance width="683"/>
	<unicode hex="00E5"/>
	<outline>
		<contour>
			<point x="23" y="256" type="curve"/>
			<point x="23" y="256" type="line"/>
			<point x="23" y="106"/>
			<point x="128" y="-15"/>
			<point x="278" y="-15" type="curve"/>
			<point x="348" y="-15"/>
			<point x="408" y="16"/>
			<point x="446" y="58" type="curve"/>
			<point x="448" y="58" type="line"/>
			<point x="448" y="0" type="line"/>
			<point x="623" y="0" type="line"/>
			<point x="623" y="513" type="line"/>
			<point x="446" y="513" type="line"/>
			<point x="446" y="464" type="line"/>
			<point x="404" y="505"/>
			<point x="347" y="528"/>
			<point x="278" y="528" type="curve"/>
			<point x="128" y="528"/>
			<point x="23" y="406"/>
		</contour>
		<contour>
			<point x="211" y="256" type="curve"/>
			<point x="211" y="256" type="line"/>
			<point x="211" y="327"/>
			<point x="264" y="377"/>
			<point x="331" y="377" type="curve"/>
			<point x="397" y="377"/>
			<point x="450" y="327"/>
			<point x="450" y="256" type="curve"/>
			<point x="450" y="186"/>
			<point x="400" y="136"/>
			<point x="331" y="136" type="curve"/>
			<point x="259" y="136"/>
			<point x="211" y="186"/>
		</contour>
		<contour>
			<point x="180" y="733" type="curve"/>
			<point x="180" y="733" type="line"/>
			<point x="180" y="649"/>
			<point x="245" y="590"/>
			<point x="341" y="590" type="curve"/>
			<point x="435" y="590"/>
			<point x="502" y="649"/>
			<point x="502" y="733" type="curve"/>
			<point x="502" y="816"/>
			<point x="432" y="875"/>
			<point x="341" y="875" type="curve"/>
			<point x="251" y="875"/>
			<point x="180" y="816"/>
		</contour>
		<contour>
			<point x="280" y="733" type="curve"/>
			<point x="280" y="733" type="line"/>
			<point x="280" y="767"/>
			<point x="308" y="795"/>
			<point x="341" y="795" type="curve"/>
			<point x="375" y="795"/>
			<point x="402" y="767"/>
			<point x="402" y="733" type="curve"/>
			<point x="402" y="698"/>
			<point x="376" y="669"/>
			<point x="341" y="669" type="curve"/>
			<point x="305" y="669"/>
			<point x="280" y="698"/>
		</contour>
	</outline>
</glyph>
<glyph name="ae" format="1">
  <advance width="1286"/>
  <unicode hex="E6"/>
  <outline>
    <contour>
      <point x="650" y="232" type="line"/>
      <point x="1022" y="232" type="line"/>
      <point x="1023" y="238"/>
      <point x="1023" y="249"/>
      <point x="1023" y="256" type="curve" smooth="yes"/>
      <point x="1023" y="436"/>
      <point x="904" y="528"/>
      <point x="748" y="528" type="curve" smooth="yes"/>
      <point x="593" y="528"/>
      <point x="466" y="406"/>
      <point x="466" y="256" type="curve" smooth="yes"/>
      <point x="466" y="107"/>
      <point x="593" y="-15"/>
      <point x="748" y="-15" type="curve" smooth="yes"/>
      <point x="862" y="-15"/>
      <point x="956" y="22"/>
      <point x="1014" y="119" type="curve"/>
      <point x="886" y="183" type="line"/>
      <point x="843" y="137"/>
      <point x="818" y="126"/>
      <point x="761" y="126" type="curve" smooth="yes"/>
      <point x="716" y="126"/>
      <point x="650" y="153"/>
      <point x="650" y="232" type="curve"/>
    </contour>
    <contour>
      <point x="655" y="330" type="line"/>
      <point x="658" y="377"/>
      <point x="692" y="413"/>
      <point x="753" y="413" type="curve" smooth="yes"/>
      <point x="805" y="413"/>
      <point x="842" y="384"/>
      <point x="850" y="330" type="curve"/>
    </contour>
    <contour>
      <point x="482" y="249" type="line"/>
      <point x="482" y="249"/>
      <point x="437" y="301"/>
      <point x="309" y="301" type="curve" smooth="yes"/>
      <point x="193" y="301"/>
      <point x="126" y="228"/>
      <point x="126" y="136" type="curve" smooth="yes"/>
      <point x="126" y="43"/>
      <point x="209" y="-15"/>
      <point x="316" y="-15" type="curve" smooth="yes"/>
      <point x="473" y="-15"/>
      <point x="535" y="79"/>
      <point x="535" y="79" type="curve" smooth="yes"/>
      <point x="535" y="79"/>
      <point x="482" y="234"/>
      <point x="482" y="249" type="curve"/>
    </contour>
    <contour>
      <point x="466" y="299" type="line"/>
      <point x="466" y="200"/>
      <point x="466" y="114"/>
      <point x="466" y="114" type="curve" smooth="yes"/>
      <point x="642" y="114" type="line"/>
      <point x="642" y="114"/>
      <point x="642" y="200"/>
      <point x="642" y="299" type="curve"/>
    </contour>
    <contour>
      <point x="354" y="387" type="line"/>
      <point x="405" y="387"/>
      <point x="466" y="355"/>
      <point x="466" y="299" type="curve"/>
      <point x="642" y="299" type="line"/>
      <point x="642" y="485"/>
      <point x="461" y="528"/>
      <point x="354" y="528" type="curve"/>
    </contour>
    <contour>
      <point x="215" y="357" type="line"/>
      <point x="215" y="357"/>
      <point x="262" y="387"/>
      <point x="354" y="387" type="curve"/>
      <point x="354" y="528" type="line"/>
      <point x="223" y="528"/>
      <point x="159" y="478"/>
      <point x="159" y="478" type="curve"/>
    </contour>
    <contour>
      <point x="302" y="151" type="line"/>
      <point x="302" y="187"/>
      <point x="334" y="207"/>
      <point x="381" y="207" type="curve" smooth="yes"/>
      <point x="428" y="207"/>
      <point x="466" y="181"/>
      <point x="466" y="151" type="curve" smooth="yes"/>
      <point x="466" y="121"/>
      <point x="428" y="91"/>
      <point x="381" y="91" type="curve" smooth="yes"/>
      <point x="334" y="91"/>
      <point x="302" y="115"/>
      <point x="302" y="151" type="curve" smooth="yes"/>
    </contour>
  </outline>
</glyph>
<glyph name="ccedilla" format="2">
	<advance width="491"/>
	<unicode hex="00E7"/>
	<outline>
		<contour>
			<point x="216" y="0" type="curve"/>
			<point x="216" y="0" type="line"/>
			<point x="177" y="-121" type="line"/>
			<point x="187" y="-129" type="line"/>
			<point x="187" y="-129"/>
			<point x="202" y="-120"/>
			<point x="238" y="-120" type="curve"/>
			<point x="266" y="-120"/>
			<point x="300" y="-134"/>
			<point x="300" y="-165" type="curve"/>
			<point x="300" y="-184"/>
			<point x="287" y="-204"/>
			<point x="250" y="-204" type="curve"/>
			<point x="204" y="-204"/>
			<point x="168" y="-157"/>
			<point x="168" y="-157" type="curve"/>
			<point x="96" y="-211" type="line"/>
			<point x="96" y="-211"/>
			<point x="160" y="-294"/>
			<point x="250" y="-294" type="curve"/>
			<point x="361" y="-294"/>
			<point x="402" y="-228"/>
			<point x="402" y="-165" type="curve"/>
			<point x="402" y="-96"/>
			<point x="328" y="-63"/>
			<point x="273" y="-63" type="curve"/>
			<point x="289" y="-14" type="line"/>
			<point x="295" y="-15"/>
			<point x="301" y="-15"/>
			<point x="307" y="-15" type="curve"/>
			<point x="421" y="-15"/>
			<point x="479" y="31"/>
			<point x="479" y="31" type="curve"/>
			<point x="419" y="154" type="line"/>
			<point x="419" y="154"/>
			<point x="386" y="130"/>
			<point x="333" y="130" type="curve"/>
			<point x="266" y="130"/>
			<point x="211" y="186"/>
			<point x="211" y="257" type="curve"/>
			<point x="211" y="327"/>
			<point x="266" y="383"/>
			<point x="333" y="383" type="curve"/>
			<point x="386" y="383"/>
			<point x="419" y="359"/>
			<point x="419" y="359" type="curve"/>
			<point x="479" y="480" type="line"/>
			<point x="479" y="480"/>
			<point x="421" y="528"/>
			<point x="307" y="528" type="curve"/>
			<point x="158" y="528"/>
			<point x="23" y="406"/>
			<point x="23" y="255" type="curve"/>
			<point x="23" y="136"/>
			<point x="108" y="36"/>
		</contour>
	</outline>
</glyph>
<glyph name="eth" format="1">
  <advance width="684"/>
  <unicode hex="F0"/>
  <outline>
    <contour>
      <point x="23" y="256" type="line" smooth="yes"/>
      <point x="23" y="424"/>
      <point x="171" y="528"/>
      <point x="281" y="528" type="curve" smooth="yes"/>
      <point x="295" y="528"/>
      <point x="342" y="528"/>
      <point x="371" y="512" type="curve" smooth="yes"/>
      <point x="372" y="511" type="line" smooth="yes"/>
      <point x="338" y="559"/>
      <point x="296" y="597"/>
      <point x="254" y="627" type="curve"/>
      <point x="171" y="545" type="line"/>
      <point x="94" y="622" type="line"/>
      <point x="156" y="684" type="line"/>
      <point x="93" y="714"/>
      <point x="45" y="725"/>
      <point x="45" y="725" type="curve"/>
      <point x="87" y="875" type="line"/>
      <point x="87" y="875"/>
      <point x="172" y="856"/>
      <point x="275" y="803" type="curve"/>
      <point x="348" y="875" type="line"/>
      <point x="424" y="797" type="line"/>
      <point x="372" y="745" type="line"/>
      <point x="506" y="651"/>
      <point x="638" y="498"/>
      <point x="638" y="256" type="curve" smooth="yes"/>
      <point x="638" y="98"/>
      <point x="509" y="-15"/>
      <point x="332" y="-15" type="curve" smooth="yes"/>
      <point x="147" y="-15"/>
      <point x="23" y="98"/>
      <point x="23" y="256" type="curve" smooth="yes"/>
    </contour>
    <contour>
      <point x="211" y="256" type="line" smooth="yes"/>
      <point x="211" y="186"/>
      <point x="259" y="136"/>
      <point x="331" y="136" type="curve" smooth="yes"/>
      <point x="400" y="136"/>
      <point x="450" y="186"/>
      <point x="450" y="256" type="curve" smooth="yes"/>
      <point x="450" y="261" type="line" smooth="yes"/>
      <point x="447" y="329"/>
      <point x="395" y="377"/>
      <point x="331" y="377" type="curve" smooth="yes"/>
      <point x="264" y="377"/>
      <point x="211" y="327"/>
      <point x="211" y="256" type="curve" smooth="yes"/>
    </contour>
  </outline>
</glyph>
<glyph name="ntilde" format="2">
	<advance width="661"/>
	<unicode hex="00F1"/>
	<outline>
		<contour>
			<point x="237" y="290" type="curve"/>
			<point x="237" y="290" type="line"/>
			<point x="237" y="0" type="line"/>
			<point x="60" y="0" type="line"/>
			<point x="60" y="513" type="line"/>
			<point x="237" y="513" type="line"/>
			<point x="237" y="459" type="line"/>
			<point x="239" y="459" type="line"/>
			<point x="279" y="499"/>
			<point x="330" y="528"/>
			<point x="386" y="528" type="curve"/>
			<point x="480" y="528"/>
			<point x="611" y="481"/>
			<point x="611" y="338" type="curve"/>
			<point x="611" y="0" type="line"/>
			<point x="434" y="0" type="line"/>
			<point x="434" y="290" type="line" smooth="yes"/>
			<point x="434" y="341"/>
			<point x="399" y="390"/>
			<point x="342" y="390" type="curve"/>
			<point x="289" y="390"/>
			<point x="237" y="341"/>
		</contour>
		<contour>
			<point x="321" y="642" type="curve"/>
			<point x="321" y="642" type="line"/>
			<point x="321" y="642"/>
			<point x="386" y="615"/>
			<point x="425" y="615" type="curve"/>
			<point x="535" y="615"/>
			<point x="561" y="787"/>
			<point x="561" y="787" type="curve"/>
			<point x="460" y="787" type="line" smooth="yes"/>
			<point x="460" y="787"/>
			<point x="447" y="741"/>
			<point x="415" y="741" type="curve"/>
			<point x="379" y="741"/>
			<point x="339" y="760"/>
			<point x="339" y="760" type="curve"/>
			<point x="339" y="760"/>
			<point x="274" y="787"/>
			<point x="235" y="787" type="curve"/>
			<point x="125" y="787"/>
			<point x="99" y="615"/>
			<point x="99" y="615" type="curve"/>
			<point x="200" y="615" type="line"/>
			<point x="200" y="615"/>
			<point x="213" y="661"/>
			<point x="245" y="661" type="curve"/>
			<point x="281" y="661"/>
			<point x="321" y="642"/>
		</contour>
	</outline>
</glyph>
<glyph name="oacute" format="2">
	<advance width="661"/>
	<unicode hex="00F3"/>
	<outline>
		<contour>
			<point x="23" y="256" type="curve"/>
			<point x="23" y="256" type="line"/>
			<point x="23" y="416"/>
			<point x="159" y="528"/>
			<point x="332" y="528" type="curve"/>
			<point x="502" y="528"/>
			<point x="638" y="416"/>
			<point x="638" y="256" type="curve"/>
			<point x="638" y="98"/>
			<point x="509" y="-15"/>
			<point x="332" y="-15" type="curve"/>
			<point x="147" y="-15"/>
			<point x="23" y="98"/>
		</contour>
		<contour>
			<point x="211" y="256" type="curve"/>
			<point x="211" y="256" type="line"/>
			<point x="211" y="186"/>
			<point x="259" y="136"/>
			<point x="331" y="136" type="curve"/>
			<point x="400" y="136"/>
			<point x="450" y="186"/>
			<point x="450" y="256" type="curve"/>
			<point x="450" y="327"/>
			<point x="397" y="377"/>
			<point x="331" y="377" type="curve"/>
			<point x="264" y="377"/>
			<point x="211" y="327"/>
		</contour>
		<contour>
			<point x="232" y="664" type="line"/>
			<point x="288" y="587" type="line"/>
			<point x="526" y="725" type="line"/>
			<point x="435" y="840" type="line"/>
		</contour>
	</outline>
</glyph>
<glyph name="otilde" format="2">
	<advance width="661"/>
	<unicode hex="00F5"/>
	<outline>
		<contour>
			<point x="23" y="256" type="curve"/>
			<point x="23" y="256" type="line"/>
			<point x="23" y="416"/>
			<point x="159" y="528"/>
			<point x="332" y="528" type="curve"/>
			<point x="502" y="528"/>
			<point x="638" y="416"/>
			<point x="638" y="256" type="curve"/>
			<point x="638" y="98"/>
			<point x="509" y="-15"/>
			<point x="332" y="-15" type="curve"/>
			<point x="147" y="-15"/>
			<point x="23" y="98"/>
		</contour>
		<contour>
			<point x="211" y="256" type="curve"/>
			<point x="211" y="256" type="line"/>
			<point x="211" y="186"/>
			<point x="259" y="136"/>
			<point x="331" y="136" type="curve"/>
			<point x="400" y="136"/>
			<point x="450" y="186"/>
			<point x="450" y="256" type="curve"/>
			<point x="450" y="327"/>
			<point x="397" y="377"/>
			<point x="331" y="377" type="curve"/>
			<point x="264" y="377"/>
			<point x="211" y="327"/>
		</contour>
		<contour>
			<point x="321" y="642" type="curve"/>
			<point x="321" y="642" type="line"/>
			<point x="321" y="642"/>
			<point x="386" y="615"/>
			<point x="425" y="615" type="curve"/>
			<point x="535" y="615"/>
			<point x="561" y="787"/>
			<point x="561" y="787" type="curve"/>
			<point x="460" y="787" type="line" smooth="yes"/>
			<point x="460" y="787"/>
			<point x="447" y="741"/>
			<point x="415" y="741" type="curve"/>
			<point x="379" y="741"/>
			<point x="339" y="760"/>
			<point x="339" y="760" type="curve"/>
			<point x="339" y="760"/>
			<point x="274" y="787"/>
			<point x="235" y="787" type="curve"/>
			<point x="125" y="787"/>
			<point x="99" y="615"/>
			<point x="99" y="615" type="curve"/>
			<point x="200" y="615" type="line"/>
			<point x="200" y="615"/>
			<point x="213" y="661"/>
			<point x="245" y="661" type="curve"/>
			<point x="281" y="661"/>
			<point x="321" y="642"/>
		</contour>
	</outline>
</glyph>
<glyph name="odieresis" format="2">
	<advance width="661"/>
	<unicode hex="00F6"/>
	<outline>
		<contour>
			<point x="23" y="256" type="curve"/>
			<point x="23" y="256" type="line"/>
			<point x="23" y="416"/>
			<point x="159" y="528"/>
			<point x="332" y="528" type="curve"/>
			<point x="502" y="528"/>
			<point x="638" y="416"/>
			<point x="638" y="256" type="curve"/>
			<point x="638" y="98"/>
			<point x="509" y="-15"/>
			<point x="332" y="-15" type="curve"/>
			<point x="147" y="-15"/>
			<point x="23" y="98"/>
		</contour>
		<contour>
			<point x="211" y="256" type="curve"/>
			<point x="211" y="256" type="line"/>
			<point x="211" y="186"/>
			<point x="259" y="136"/>
			<point x="331" y="136" type="curve"/>
			<point x="400" y="136"/>
			<point x="450" y="186"/>
			<point x="450" y="256" type="curve"/>
			<point x="450" y="327"/>
			<point x="397" y="377"/>
			<point x="331" y="377" type="curve"/>
			<point x="264" y="377"/>
			<point x="211" y="327"/>
		</contour>
		<contour>
			<point x="212" y="791" type="curve"/>
			<point x="212" y="791" type="line"/>
			<point x="161" y="791"/>
			<point x="120" y="750"/>
			<point x="120" y="699" type="curve"/>
			<point x="120" y="648"/>
			<point x="161" y="607"/>
			<point x="212" y="607" type="curve"/>
			<point x="263" y="607"/>
			<point x="304" y="648"/>
			<point x="304" y="699" type="curve"/>
			<point x="304" y="750"/>
			<point x="263" y="791"/>
		</contour>
		<contour>
			<point x="449" y="791" type="curve"/>
			<point x="449" y="791" type="line"/>
			<point x="398" y="791"/>
			<point x="357" y="750"/>
			<point x="357" y="699" type="curve"/>
			<point x="357" y="648"/>
			<point x="398" y="607"/>
			<point x="449" y="607" type="curve"/>
			<point x="500" y="607"/>
			<point x="541" y="648"/>
			<point x="541" y="699" type="curve"/>
			<point x="541" y="750"/>
			<point x="500" y="791"/>
		</contour>
	</outline>
</glyph>
<glyph name="divide" format="2">
	<advance width="633"/>
	<unicode hex="00F7"/>
	<outline>
		<contour>
			<point x="60" y="491" type="line"/>
			<point x="60" y="338" type="line"/>
			<point x="573" y="338" type="line"/>
			<point x="573" y="491" type="line"/>
		</contour>
		<contour>
			<point x="315" y="720" type="curve"/>
			<point x="315" y="720" type="line"/>
			<point x="271" y="720"/>
			<point x="235" y="684"/>
			<point x="235" y="638" type="curve"/>
			<point x="235" y="594"/>
			<point x="271" y="558"/>
			<point x="315" y="558" type="curve"/>
			<point x="361" y="558"/>
			<point x="397" y="594"/>
			<point x="397" y="638" type="curve"/>
			<point x="397" y="684"/>
			<point x="361" y="720"/>
		</contour>
		<contour>
			<point x="315" y="271" type="curve"/>
			<point x="315" y="271" type="line"/>
			<point x="271" y="271"/>
			<point x="235" y="235"/>
			<point x="235" y="189" type="curve"/>
			<point x="235" y="145"/>
			<point x="271" y="109"/>
			<point x="315" y="109" type="curve"/>
			<point x="361" y="109"/>
			<point x="397" y="145"/>
			<point x="397" y="189" type="curve"/>
			<point x="397" y="235"/>
			<point x="361" y="271"/>
		</contour>
	</outline>
</glyph>
<glyph name="yacute" format="1">
  <advance width="641"/>
  <unicode hex="00FD"/>
  <outline>
    <contour>
      <point x="188" y="513" type="line"/>
      <point x="-16" y="513" type="line"/>
      <point x="227" y="80" type="line"/>
      <point x="50" y="-260" type="line"/>
      <point x="254" y="-260" type="line"/>
      <point x="388" y="0" type="line"/>
      <point x="389" y="0" type="line"/>
      <point x="657" y="513" type="line"/>
      <point x="453" y="513" type="line"/>
      <point x="331" y="250" type="line"/>
    </contour>
    <contour>
      <point x="517" y="725" type="line"/>
      <point x="426" y="840" type="line"/>
      <point x="223" y="664" type="line"/>
      <point x="279" y="587" type="line"/>
    </contour>
  </outline>
</glyph>
<glyph name="ydieresis" format="1">
  <advance width="641"/>
  <unicode hex="00FF"/>
  <outline>
    <contour>
      <point x="188" y="513" type="line"/>
      <point x="-16" y="513" type="line"/>
      <point x="227" y="80" type="line"/>
      <point x="50" y="-260" type="line"/>
      <point x="254" y="-260" type="line"/>
      <point x="388" y="0" type="line"/>
      <point x="389" y="0" type="line"/>
      <point x="657" y="513" type="line"/>
      <point x="453" y="513" type="line"/>
      <point x="331" y="250" type="line"/>
    </contour>
    <contour>
      <point x="151" y="791"/>
      <point x="110" y="750"/>
      <point x="110" y="699" type="curve" smooth="yes"/>
      <point x="110" y="648"/>
      <point x="151" y="607"/>
      <point x="202" y="607" type="curve" smooth="yes"/>
      <point x="253" y="607"/>
      <point x="294" y="648"/>
      <point x="294" y="699" type="curve" smooth="yes"/>
      <point x="294" y="750"/>
      <point x="253" y="791"/>
      <point x="202" y="791" type="curve" smooth="yes"/>
    </contour>
    <contour>
      <point x="388" y="791"/>
      <point x="347" y="750"/>
      <point x="347" y="699" type="curve" smooth="yes"/>
      <point x="347" y="648"/>
      <point x="388" y="607"/>
      <point x="439" y="607" type="curve" smooth="yes"/>
      <point x="490" y="607"/>
      <point x="531" y="648"/>
      <point x="531" y="699" type="curve" smooth="yes"/>
      <point x="531" y="750"/>
      <point x="490" y="791"/>
      <point x="439" y="791" type="curve" smooth="yes"/>
    </contour>
  </outline>
</glyph>
<glyph name="Amacron" format="1">
  <advance width="830"/>
  <unicode hex="0100"/>
  <outline>
    <contour>
      <point x="-5" y="0" type="line"/>
      <point x="197" y="0" type="line"/>
      <point x="258" y="165" type="line"/>
      <point x="572" y="165" type="line"/>
      <point x="633" y="0" type="line"/>
      <point x="835" y="0" type="line"/>
      <point x="502" y="825" type="line"/>
      <point x="328" y="825" type="line"/>
    </contour>
    <contour>
      <point x="414" y="570" type="line"/>
      <point x="416" y="570" type="line"/>
      <point x="508" y="330" type="line"/>
      <point x="322" y="330" type="line"/>
    </contour>
    <contour>
      <point x="619" y="946" type="line"/>
      <point x="619" y="1066" type="line"/>
      <point x="211" y="1066" type="line"/>
      <point x="211" y="946" type="line"/>
    </contour>
  </outline>
</glyph>
<glyph name="Abreve" format="1">
  <advance width="830"/>
  <unicode hex="0102"/>
  <outline>
    <contour>
      <point x="-5" y="0" type="line"/>
      <point x="197" y="0" type="line"/>
      <point x="258" y="165" type="line"/>
      <point x="572" y="165" type="line"/>
      <point x="633" y="0" type="line"/>
      <point x="835" y="0" type="line"/>
      <point x="502" y="825" type="line"/>
      <point x="328" y="825" type="line"/>
    </contour>
    <contour>
      <point x="414" y="570" type="line"/>
      <point x="416" y="570" type="line"/>
      <point x="508" y="330" type="line"/>
      <point x="322" y="330" type="line"/>
    </contour>
    <contour>
      <point x="520" y="1152" type="line"/>
      <point x="520" y="1152"/>
      <point x="509" y="1049"/>
      <point x="415" y="1049" type="curve" smooth="yes"/>
      <point x="321" y="1049"/>
      <point x="310" y="1152"/>
      <point x="310" y="1152" type="curve"/>
      <point x="184" y="1121" type="line"/>
      <point x="196" y="1014"/>
      <point x="286" y="940"/>
      <point x="415" y="940" type="curve" smooth="yes"/>
      <point x="544" y="940"/>
      <point x="634" y="1014"/>
      <point x="646" y="1121" type="curve"/>
    </contour>
  </outline>
</glyph>
<glyph name="Aogonek" format="2">
	<advance width="784"/>
	<unicode hex="0104"/>
	<outline>
		<contour>
			<point x="549" y="-158" type="curve"/>
			<point x="549" y="-158" type="line"/>
			<point x="549" y="-245"/>
			<point x="623" y="-275"/>
			<point x="675" y="-275" type="curve"/>
			<point x="767" y="-275"/>
			<point x="812" y="-203"/>
			<point x="812" y="-203" type="curve"/>
			<point x="740" y="-149" type="line"/>
			<point x="740" y="-149"/>
			<point x="720" y="-179"/>
			<point x="689" y="-179" type="curve"/>
			<point x="672" y="-179"/>
			<point x="652" y="-165"/>
			<point x="652" y="-140" type="curve"/>
			<point x="652" y="-70"/>
			<point x="711" y="0"/>
			<point x="711" y="0" type="curve"/>
			<point x="812" y="0" type="line"/>
			<point x="479" y="825" type="line"/>
			<point x="305" y="825" type="line"/>
			<point x="-28" y="0" type="line"/>
			<point x="174" y="0" type="line"/>
			<point x="235" y="165" type="line"/>
			<point x="549" y="165" type="line"/>
			<point x="610" y="0" type="line"/>
			<point x="629" y="0" type="line"/>
			<point x="599" y="-36"/>
			<point x="549" y="-103"/>
		</contour>
		<contour>
			<point x="485" y="330" type="line"/>
			<point x="299" y="330" type="line"/>
			<point x="391" y="570" type="line"/>
			<point x="393" y="570" type="line"/>
		</contour>
	</outline>
</glyph>
<glyph name="Aogonek" format="1">
  <advance width="830"/>
  <unicode hex="0104"/>
  <outline>
    <contour>
      <point x="572" y="-245"/>
      <point x="646" y="-275"/>
      <point x="698" y="-275" type="curve" smooth="yes"/>
      <point x="790" y="-275"/>
      <point x="835" y="-203"/>
      <point x="835" y="-203" type="curve"/>
      <point x="763" y="-149" type="line"/>
      <point x="763" y="-149"/>
      <point x="743" y="-179"/>
      <point x="712" y="-179" type="curve" smooth="yes"/>
      <point x="695" y="-179"/>
      <point x="675" y="-165"/>
      <point x="675" y="-140" type="curve" smooth="yes"/>
      <point x="675" y="-70"/>
      <point x="734" y="0"/>
      <point x="734" y="0" type="curve"/>
      <point x="835" y="0" type="line"/>
      <point x="502" y="825" type="line"/>
      <point x="328" y="825" type="line"/>
      <point x="-5" y="0" type="line"/>
      <point x="197" y="0" type="line"/>
      <point x="258" y="165" type="line"/>
      <point x="572" y="165" type="line"/>
      <point x="633" y="0" type="line"/>
      <point x="652" y="0" type="line"/>
      <point x="622" y="-36"/>
      <point x="572" y="-103"/>
      <point x="572" y="-158" type="curve" smooth="yes"/>
    </contour>
    <contour>
      <point x="414" y="570" type="line"/>
      <point x="416" y="570" type="line"/>
      <point x="508" y="330" type="line"/>
      <point x="322" y="330" type="line"/>
    </contour>
  </outline>
</glyph>
<glyph name="aogonek" format="1">
  <advance width="683"/>
  <unicode hex="105"/>
  <outline>
    <contour>
      <point x="368" y="-158" type="line" smooth="yes"/>
      <point x="368" y="-101"/>
      <point x="418" y="-35"/>
      <point x="448" y="0" type="curve"/>
      <point x="448" y="58" type="line"/>
      <point x="446" y="58" type="line"/>
      <point x="408" y="16"/>
      <point x="348" y="-15"/>
      <point x="278" y="-15" type="curve" smooth="yes"/>
      <point x="128" y="-15"/>
      <point x="23" y="106"/>
      <point x="23" y="256" type="curve" smooth="yes"/>
      <point x="23" y="406"/>
      <point x="128" y="528"/>
      <point x="278" y="528" type="curve" smooth="yes"/>
      <point x="347" y="528"/>
      <point x="404" y="505"/>
      <point x="446" y="464" type="curve"/>
      <point x="446" y="513" type="line"/>
      <point x="623" y="513" type="line"/>
      <point x="623" y="0" type="line"/>
      <point x="530" y="0" type="line"/>
      <point x="530" y="0"/>
      <point x="471" y="-70"/>
      <point x="471" y="-140" type="curve" smooth="yes"/>
      <point x="471" y="-165"/>
      <point x="491" y="-179"/>
      <point x="508" y="-179" type="curve" smooth="yes"/>
      <point x="539" y="-179"/>
      <point x="559" y="-149"/>
      <point x="559" y="-149" type="curve"/>
      <point x="631" y="-203" type="line"/>
      <point x="631" y="-203"/>
      <point x="586" y="-275"/>
      <point x="494" y="-275" type="curve" smooth="yes"/>
      <point x="442" y="-275"/>
      <point x="368" y="-245"/>
      <point x="368" y="-158" type="curve" smooth="yes"/>
    </contour>
    <contour>
      <point x="211" y="256" type="line" smooth="yes"/>
      <point x="211" y="186"/>
      <point x="259" y="136"/>
      <point x="331" y="136" type="curve" smooth="yes"/>
      <point x="400" y="136"/>
      <point x="450" y="186"/>
      <point x="450" y="256" type="curve" smooth="yes"/>
      <point x="450" y="327"/>
      <point x="397" y="377"/>
      <point x="331" y="377" type="curve" smooth="yes"/>
      <point x="264" y="377"/>
      <point x="211" y="327"/>
      <point x="211" y="256" type="curve" smooth="yes"/>
    </contour>
  </outline>
</glyph>
<glyph name="Cacute" format="2">
	<advance width="753"/>
	<unicode hex="0106"/>
	<outline>
		<contour>
			<point x="499" y="170" type="curve"/>
			<point x="499" y="170" type="line"/>
			<point x="595" y="170"/>
			<point x="661" y="221"/>
			<point x="661" y="221" type="curve"/>
			<point x="741" y="61" type="line"/>
			<point x="741" y="61"/>
			<point x="649" y="-15"/>
			<point x="470" y="-15" type="curve"/>
			<point x="237" y="-15"/>
			<point x="23" y="175"/>
			<point x="23" y="411" type="curve"/>
			<point x="23" y="648"/>
			<point x="236" y="840"/>
			<point x="470" y="840" type="curve"/>
			<point x="649" y="840"/>
			<point x="741" y="764"/>
			<point x="741" y="764" type="curve"/>
			<point x="661" y="604" type="line"/>
			<point x="661" y="604"/>
			<point x="595" y="655"/>
			<point x="499" y="655" type="curve"/>
			<point x="310" y="655"/>
			<point x="227" y="523"/>
			<point x="227" y="413" type="curve"/>
			<point x="227" y="302"/>
			<point x="310" y="170"/>
		</contour>
		<contour>
			<point x="271" y="976" type="line"/>
			<point x="327" y="899" type="line"/>
			<point x="565" y="1037" type="line"/>
			<point x="474" y="1152" type="line"/>
		</contour>
	</outline>
</glyph>
<glyph name="Dcaron" format="2">
	<advance width="738"/>
	<unicode hex="010E"/>
	<outline>
		<contour>
			<point x="299" y="825" type="curve"/>
			<point x="60" y="825" type="line"/>
			<point x="60" y="0" type="line"/>
			<point x="299" y="0" type="line" smooth="yes"/>
			<point x="526" y="0"/>
			<point x="715" y="172"/>
			<point x="715" y="413" type="curve"/>
			<point x="715" y="653"/>
			<point x="525" y="825"/>
		</contour>
		<contour>
			<point x="248" y="168" type="line"/>
			<point x="248" y="657" type="line"/>
			<point x="277" y="657" type="line" smooth="yes"/>
			<point x="417" y="657"/>
			<point x="512" y="550"/>
			<point x="512" y="412" type="curve"/>
			<point x="511" y="274"/>
			<point x="416" y="168"/>
			<point x="277" y="168" type="curve"/>
		</contour>
		<contour>
			<point x="207" y="1152" type="line"/>
			<point x="139" y="1061" type="line"/>
			<point x="360" y="899" type="line"/>
			<point x="581" y="1061" type="line"/>
			<point x="513" y="1152" type="line"/>
			<point x="360" y="1040" type="line"/>
		</contour>
	</outline>
</glyph>
<glyph name="dcaron" format="2">
	<advance width="683"/>
	<unicode hex="010F"/>
	<outline>
		<contour>
			<point x="23" y="256" type="curve"/>
			<point x="23" y="256" type="line"/>
			<point x="23" y="106"/>
			<point x="128" y="-15"/>
			<point x="278" y="-15" type="curve"/>
			<point x="348" y="-15"/>
			<point x="408" y="16"/>
			<point x="446" y="58" type="curve"/>
			<point x="448" y="58" type="line"/>
			<point x="448" y="0" type="line"/>
			<point x="623" y="0" type="line"/>
			<point x="623" y="860" type="line"/>
			<point x="446" y="860" type="line"/>
			<point x="446" y="464" type="line"/>
			<point x="404" y="505"/>
			<point x="347" y="528"/>
			<point x="278" y="528" type="curve"/>
			<point x="128" y="528"/>
			<point x="23" y="406"/>
		</contour>
		<contour>
			<point x="211" y="256" type="curve"/>
			<point x="211" y="256" type="line"/>
			<point x="211" y="327"/>
			<point x="264" y="377"/>
			<point x="331" y="377" type="curve"/>
			<point x="397" y="377"/>
			<point x="450" y="327"/>
			<point x="450" y="256" type="curve"/>
			<point x="450" y="186"/>
			<point x="400" y="136"/>
			<point x="331" y="136" type="curve"/>
			<point x="259" y="136"/>
			<point x="211" y="186"/>
		</contour>
		<contour>
			<point x="756" y="824" type="curve"/>
			<point x="756" y="824" type="line"/>
			<point x="708" y="824"/>
			<point x="668" y="784"/>
			<point x="668" y="734" type="curve"/>
			<point x="668" y="694"/>
			<point x="697" y="663"/>
			<point x="735" y="654" type="curve"/>
			<point x="723" y="589"/>
			<point x="676" y="544"/>
			<point x="676" y="544" type="curve"/>
			<point x="716" y="513" type="line"/>
			<point x="779" y="565"/>
			<point x="846" y="641"/>
			<point x="846" y="734" type="curve"/>
			<point x="846" y="784"/>
			<point x="806" y="824"/>
		</contour>
	</outline>
</glyph>
<glyph name="Eogonek" format="2">
	<advance width="580"/>
	<unicode hex="0118"/>
	<outline>
		<contour>
			<point x="532" y="825" type="line"/>
			<point x="60" y="825" type="line"/>
			<point x="60" y="0" type="line"/>
			<point x="353" y="0" type="line"/>
			<point x="323" y="-36"/>
			<point x="273" y="-103"/>
			<point x="273" y="-158" type="curve"/>
			<point x="273" y="-245"/>
			<point x="347" y="-275"/>
			<point x="399" y="-275" type="curve"/>
			<point x="491" y="-275"/>
			<point x="536" y="-203"/>
			<point x="536" y="-203" type="curve"/>
			<point x="464" y="-149" type="line"/>
			<point x="464" y="-149"/>
			<point x="444" y="-179"/>
			<point x="413" y="-179" type="curve"/>
			<point x="396" y="-179"/>
			<point x="376" y="-165"/>
			<point x="376" y="-140" type="curve"/>
			<point x="376" y="-70"/>
			<point x="435" y="0"/>
			<point x="435" y="0" type="curve"/>
			<point x="532" y="0" type="line"/>
			<point x="532" y="165" type="line"/>
			<point x="248" y="165" type="line"/>
			<point x="248" y="331" type="line"/>
			<point x="520" y="331" type="line"/>
			<point x="520" y="496" type="line"/>
			<point x="248" y="496" type="line"/>
			<point x="248" y="660" type="line"/>
			<point x="532" y="660" type="line"/>
		</contour>
	</outline>
</glyph>
<glyph name="eogonek" format="1">
  <advance width="603"/>
  <unicode hex="119"/>
  <outline>
    <contour>
      <point x="256" y="-158" type="line"/>
      <point x="256" y="-245"/>
      <point x="330" y="-275"/>
      <point x="382" y="-275" type="curve" smooth="yes"/>
      <point x="474" y="-275"/>
      <point x="519" y="-203"/>
      <point x="519" y="-203" type="curve"/>
      <point x="447" y="-149" type="line"/>
      <point x="447" y="-149"/>
      <point x="427" y="-179"/>
      <point x="396" y="-179" type="curve" smooth="yes"/>
      <point x="379" y="-179"/>
      <point x="359" y="-165"/>
      <point x="359" y="-140" type="curve" smooth="yes"/>
      <point x="359" y="-70"/>
      <point x="418" y="0"/>
      <point x="418" y="0" type="curve"/>
      <point x="360" y="26" type="line"/>
      <point x="360" y="26"/>
      <point x="256" y="-79"/>
      <point x="256" y="-158" type="curve"/>
    </contour>
    <component base="e"/>
  </outline>
</glyph>
<glyph name="uni0122" format="2">
	<advance width="829"/>
	<unicode hex="0122"/>
	<outline>
		<contour>
			<point x="806" y="462" type="line"/>
			<point x="425" y="462" type="line"/>
			<point x="425" y="317" type="line"/>
			<point x="615" y="317" type="line"/>
			<point x="615" y="216"/>
			<point x="526" y="158"/>
			<point x="436" y="158" type="curve"/>
			<point x="320" y="158"/>
			<point x="226" y="272"/>
			<point x="226" y="412" type="curve"/>
			<point x="226" y="555"/>
			<point x="320" y="670"/>
			<point x="436" y="670" type="curve"/>
			<point x="509" y="670"/>
			<point x="572" y="641"/>
			<point x="620" y="564" type="curve"/>
			<point x="743" y="699" type="line"/>
			<point x="671" y="786"/>
			<point x="570" y="840"/>
			<point x="425" y="840" type="curve"/>
			<point x="193" y="840"/>
			<point x="23" y="649"/>
			<point x="23" y="412" type="curve"/>
			<point x="23" y="176"/>
			<point x="203" y="-15"/>
			<point x="425" y="-15" type="curve"/>
			<point x="587" y="-15"/>
			<point x="761" y="74"/>
			<point x="806" y="283" type="curve"/>
		</contour>
		<contour>
			<point x="413" y="-40" type="curve"/>
			<point x="413" y="-40" type="line"/>
			<point x="463" y="-40"/>
			<point x="503" y="-80"/>
			<point x="503" y="-130" type="curve"/>
			<point x="503" y="-223"/>
			<point x="436" y="-299"/>
			<point x="373" y="-351" type="curve"/>
			<point x="333" y="-320" type="line"/>
			<point x="333" y="-320"/>
			<point x="380" y="-275"/>
			<point x="392" y="-210" type="curve"/>
			<point x="354" y="-201"/>
			<point x="325" y="-170"/>
			<point x="325" y="-130" type="curve"/>
			<point x="325" y="-80"/>
			<point x="365" y="-40"/>
		</contour>
	</outline>
</glyph>
<glyph name="Imacron" format="2">
	<advance width="308"/>
	<unicode hex="012A"/>
	<outline>
		<contour>
			<point x="248" y="825" type="line"/>
			<point x="60" y="825" type="line"/>
			<point x="60" y="0" type="line"/>
			<point x="248" y="0" type="line"/>
		</contour>
		<contour>
			<point x="-50" y="1066" type="line"/>
			<point x="-50" y="946" type="line"/>
			<point x="358" y="946" type="line"/>
			<point x="358" y="1066" type="line"/>
		</contour>
	</outline>
</glyph>
<glyph name="Iogonek" format="1">
  <advance width="308"/>
  <unicode hex="12E"/>
  <outline>
    <contour>
      <point x="60" y="0" type="line"/>
      <point x="248" y="0" type="line"/>
      <point x="248" y="825" type="line"/>
      <point x="60" y="825" type="line"/>
    </contour>
    <contour>
      <point x="33" y="-158" type="line"/>
      <point x="33" y="-245"/>
      <point x="107" y="-275"/>
      <point x="159" y="-275" type="curve" smooth="yes"/>
      <point x="251" y="-275"/>
      <point x="296" y="-203"/>
      <point x="296" y="-203" type="curve"/>
      <point x="224" y="-149" type="line"/>
      <point x="224" y="-149"/>
      <point x="204" y="-179"/>
      <point x="173" y="-179" type="curve" smooth="yes"/>
      <point x="156" y="-179"/>
      <point x="136" y="-165"/>
      <point x="136" y="-140" type="curve" smooth="yes"/>
      <point x="136" y="-70"/>
      <point x="195" y="0"/>
      <point x="195" y="0" type="curve"/>
      <point x="137" y="26" type="line"/>
      <point x="137" y="26"/>
      <point x="33" y="-79"/>
      <point x="33" y="-158" type="curve"/>
    </contour>
  </outline>
</glyph>
<glyph name="dotlessi" format="1">
  <advance width="269"/>
  <unicode hex="131"/>
  <outline>
    <contour>
      <point x="223" y="0" type="line"/>
      <point x="46" y="0" type="line"/>
      <point x="46" y="513" type="line"/>
      <point x="223" y="513" type="line"/>
    </contour>
  </outline>
</glyph>
<glyph name="uni0136" format="2">
	<advance width="787"/>
	<unicode hex="0136"/>
	<outline>
		<contour>
			<point x="811" y="0" type="line"/>
			<point x="427" y="434" type="line"/>
			<point x="759" y="825" type="line"/>
			<point x="531" y="825" type="line"/>
			<point x="248" y="488" type="line"/>
			<point x="248" y="825" type="line"/>
			<point x="60" y="825" type="line"/>
			<point x="60" y="0" type="line"/>
			<point x="248" y="0" type="line"/>
			<point x="248" y="350" type="line"/>
			<point x="552" y="0" type="line"/>
		</contour>
		<contour>
			<point x="392" y="-40" type="curve"/>
			<point x="392" y="-40" type="line"/>
			<point x="442" y="-40"/>
			<point x="482" y="-80"/>
			<point x="482" y="-130" type="curve"/>
			<point x="482" y="-223"/>
			<point x="415" y="-299"/>
			<point x="352" y="-351" type="curve"/>
			<point x="312" y="-320" type="line"/>
			<point x="312" y="-320"/>
			<point x="359" y="-275"/>
			<point x="371" y="-210" type="curve"/>
			<point x="333" y="-201"/>
			<point x="304" y="-170"/>
			<point x="304" y="-130" type="curve"/>
			<point x="304" y="-80"/>
			<point x="344" y="-40"/>
		</contour>
	</outline>
</glyph>
<glyph name="Lacute" format="2">
	<advance width="565"/>
	<unicode hex="0139"/>
	<outline>
		<contour>
			<point x="248" y="825" type="line"/>
			<point x="60" y="825" type="line"/>
			<point x="60" y="0" type="line"/>
			<point x="532" y="0" type="line"/>
			<point x="532" y="165" type="line"/>
			<point x="248" y="165" type="line"/>
		</contour>
		<contour>
			<point x="136" y="976" type="line"/>
			<point x="192" y="899" type="line"/>
			<point x="430" y="1037" type="line"/>
			<point x="339" y="1152" type="line"/>
		</contour>
	</outline>
</glyph>
<glyph name="uni013C" format="2">
	<advance width="297"/>
	<unicode hex="013C"/>
	<outline>
		<contour>
			<point x="60" y="0" type="line"/>
			<point x="237" y="0" type="line"/>
			<point x="237" y="860" type="line"/>
			<point x="60" y="860" type="line"/>
		</contour>
		<contour>
			<point x="147" y="-40" type="curve"/>
			<point x="147" y="-40" type="line"/>
			<point x="99" y="-40"/>
			<point x="59" y="-80"/>
			<point x="59" y="-130" type="curve"/>
			<point x="59" y="-170"/>
			<point x="88" y="-201"/>
			<point x="126" y="-210" type="curve"/>
			<point x="114" y="-275"/>
			<point x="67" y="-320"/>
			<point x="67" y="-320" type="curve"/>
			<point x="107" y="-351" type="line"/>
			<point x="170" y="-299"/>
			<point x="237" y="-223"/>
			<point x="237" y="-130" type="curve"/>
			<point x="237" y="-80"/>
			<point x="197" y="-40"/>
		</contour>
	</outline>
</glyph>
<glyph name="Lcaron" format="2">
	<advance width="565"/>
	<unicode hex="013D"/>
	<outline>
		<contour>
			<point x="248" y="825" type="line"/>
			<point x="60" y="825" type="line"/>
			<point x="60" y="0" type="line"/>
			<point x="532" y="0" type="line"/>
			<point x="532" y="165" type="line"/>
			<point x="248" y="165" type="line"/>
		</contour>
		<contour>
			<point x="417" y="824" type="curve"/>
			<point x="417" y="824" type="line"/>
			<point x="467" y="824"/>
			<point x="507" y="784"/>
			<point x="507" y="734" type="curve"/>
			<point x="507" y="641"/>
			<point x="440" y="565"/>
			<point x="377" y="513" type="curve"/>
			<point x="337" y="544" type="line"/>
			<point x="337" y="544"/>
			<point x="384" y="589"/>
			<point x="396" y="654" type="curve"/>
			<point x="358" y="663"/>
			<point x="329" y="694"/>
			<point x="329" y="734" type="curve"/>
			<point x="329" y="784"/>
			<point x="369" y="824"/>
		</contour>
	</outline>
</glyph>
<glyph name="Lslash" format="1">
  <advance width="568"/>
  <unicode hex="141"/>
  <outline>
    <contour>
      <point x="389" y="540" type="line"/>
      <point x="389" y="693" type="line"/>
      <point x="20" y="403" type="line"/>
      <point x="20" y="250" type="line"/>
    </contour>
    <component base="L" xOffset="36"/>
  </outline>
</glyph>
<glyph name="oe" format="2">
	<advance width="1021"/>
	<unicode hex="0153"/>
	<outline>
		<contour>
			<point x="625" y="232" type="curve"/>
			<point x="625" y="232" type="line"/>
			<point x="997" y="232" type="line"/>
			<point x="998" y="238"/>
			<point x="998" y="249"/>
			<point x="998" y="256" type="curve"/>
			<point x="998" y="436"/>
			<point x="879" y="528"/>
			<point x="723" y="528" type="curve"/>
			<point x="594" y="528"/>
			<point x="520" y="446"/>
			<point x="520" y="446" type="curve"/>
			<point x="520" y="446"/>
			<point x="449" y="528"/>
			<point x="326" y="528" type="curve"/>
			<point x="153" y="528"/>
			<point x="23" y="416"/>
			<point x="23" y="256" type="curve"/>
			<point x="23" y="98"/>
			<point x="141" y="-15"/>
			<point x="326" y="-15" type="curve"/>
			<point x="453" y="-15"/>
			<point x="521" y="66"/>
			<point x="521" y="66" type="curve"/>
			<point x="521" y="66"/>
			<point x="603" y="-15"/>
			<point x="723" y="-15" type="curve"/>
			<point x="837" y="-15"/>
			<point x="931" y="22"/>
			<point x="989" y="119" type="curve"/>
			<point x="861" y="183" type="line"/>
			<point x="818" y="137"/>
			<point x="793" y="126"/>
			<point x="736" y="126" type="curve"/>
			<point x="691" y="126"/>
			<point x="625" y="153"/>
		</contour>
		<contour>
			<point x="208" y="256" type="curve"/>
			<point x="208" y="256" type="line"/>
			<point x="208" y="327"/>
			<point x="261" y="377"/>
			<point x="328" y="377" type="curve"/>
			<point x="394" y="377"/>
			<point x="447" y="327"/>
			<point x="447" y="256" type="curve"/>
			<point x="447" y="186"/>
			<point x="397" y="136"/>
			<point x="328" y="136" type="curve"/>
			<point x="256" y="136"/>
			<point x="208" y="186"/>
		</contour>
		<contour>
			<point x="825" y="330" type="curve"/>
			<point x="825" y="330" type="line"/>
			<point x="630" y="330" type="line"/>
			<point x="633" y="377"/>
			<point x="667" y="413"/>
			<point x="728" y="413" type="curve"/>
			<point x="780" y="413"/>
			<point x="817" y="384"/>
		</contour>
	</outline>
</glyph>
<glyph name="uni0156" format="2">
	<advance width="716"/>
	<unicode hex="0156"/>
	<outline>
		<contour>
			<point x="355" y="825" type="curve"/>
			<point x="60" y="825" type="line"/>
			<point x="60" y="0" type="line"/>
			<point x="248" y="0" type="line"/>
			<point x="248" y="326" type="line"/>
			<point x="500" y="0" type="line"/>
			<point x="739" y="0" type="line"/>
			<point x="455" y="341" type="line"/>
			<point x="556" y="373"/>
			<point x="624" y="456"/>
			<point x="624" y="580" type="curve"/>
			<point x="624" y="742"/>
			<point x="508" y="825"/>
		</contour>
		<contour>
			<point x="270" y="459" type="curve"/>
			<point x="248" y="459" type="line"/>
			<point x="248" y="675" type="line"/>
			<point x="270" y="675" type="line" smooth="yes"/>
			<point x="341" y="675"/>
			<point x="426" y="670"/>
			<point x="426" y="567" type="curve"/>
			<point x="426" y="464"/>
			<point x="341" y="459"/>
		</contour>
		<contour>
			<point x="357" y="-40" type="curve"/>
			<point x="357" y="-40" type="line"/>
			<point x="407" y="-40"/>
			<point x="447" y="-80"/>
			<point x="447" y="-130" type="curve"/>
			<point x="447" y="-223"/>
			<point x="380" y="-299"/>
			<point x="317" y="-351" type="curve"/>
			<point x="277" y="-320" type="line"/>
			<point x="277" y="-320"/>
			<point x="324" y="-275"/>
			<point x="336" y="-210" type="curve"/>
			<point x="298" y="-201"/>
			<point x="269" y="-170"/>
			<point x="269" y="-130" type="curve"/>
			<point x="269" y="-80"/>
			<point x="309" y="-40"/>
		</contour>
	</outline>
</glyph>
<glyph name="uni0157" format="2">
	<advance width="498"/>
	<unicode hex="0157"/>
	<outline>
		<contour>
			<point x="60" y="0" type="line"/>
			<point x="237" y="0" type="line"/>
			<point x="237" y="270" type="line" smooth="yes"/>
			<point x="237" y="283"/>
			<point x="250" y="374"/>
			<point x="342" y="374" type="curve"/>
			<point x="401" y="374"/>
			<point x="434" y="346"/>
			<point x="434" y="346" type="curve"/>
			<point x="508" y="496" type="line"/>
			<point x="508" y="496"/>
			<point x="462" y="528"/>
			<point x="396" y="528" type="curve"/>
			<point x="295" y="528"/>
			<point x="239" y="439"/>
			<point x="239" y="439" type="curve"/>
			<point x="237" y="439" type="line"/>
			<point x="237" y="513" type="line"/>
			<point x="60" y="513" type="line"/>
		</contour>
		<contour>
			<point x="148" y="-40" type="curve"/>
			<point x="148" y="-40" type="line"/>
			<point x="100" y="-40"/>
			<point x="60" y="-80"/>
			<point x="60" y="-130" type="curve"/>
			<point x="60" y="-170"/>
			<point x="89" y="-201"/>
			<point x="127" y="-210" type="curve"/>
			<point x="115" y="-275"/>
			<point x="68" y="-320"/>
			<point x="68" y="-320" type="curve"/>
			<point x="108" y="-351" type="line"/>
			<point x="171" y="-299"/>
			<point x="238" y="-223"/>
			<point x="238" y="-130" type="curve"/>
			<point x="238" y="-80"/>
			<point x="198" y="-40"/>
		</contour>
	</outline>
</glyph>
<glyph name="rcaron" format="2">
	<advance width="498"/>
	<unicode hex="0159"/>
	<outline>
		<contour>
			<point x="237" y="270" type="curve"/>
			<point x="237" y="270" type="line"/>
			<point x="237" y="0" type="line"/>
			<point x="60" y="0" type="line"/>
			<point x="60" y="513" type="line"/>
			<point x="237" y="513" type="line"/>
			<point x="237" y="439" type="line"/>
			<point x="239" y="439" type="line"/>
			<point x="239" y="439"/>
			<point x="295" y="528"/>
			<point x="396" y="528" type="curve"/>
			<point x="462" y="528"/>
			<point x="508" y="496"/>
			<point x="508" y="496" type="curve"/>
			<point x="434" y="346" type="line"/>
			<point x="434" y="346"/>
			<point x="401" y="374"/>
			<point x="342" y="374" type="curve"/>
			<point x="250" y="374"/>
			<point x="237" y="283"/>
		</contour>
		<contour>
			<point x="96" y="840" type="line"/>
			<point x="28" y="749" type="line"/>
			<point x="249" y="587" type="line"/>
			<point x="470" y="749" type="line"/>
			<point x="402" y="840" type="line"/>
			<point x="249" y="728" type="line"/>
		</contour>
	</outline>
</glyph>
<glyph name="Tcaron" format="2">
	<advance width="596"/>
	<unicode hex="0164"/>
	<outline>
		<contour>
			<point x="8" y="660" type="line"/>
			<point x="204" y="660" type="line"/>
			<point x="204" y="0" type="line"/>
			<point x="392" y="0" type="line"/>
			<point x="392" y="660" type="line"/>
			<point x="588" y="660" type="line"/>
			<point x="588" y="825" type="line"/>
			<point x="8" y="825" type="line"/>
		</contour>
		<contour>
			<point x="145" y="1152" type="line"/>
			<point x="77" y="1061" type="line"/>
			<point x="298" y="899" type="line"/>
			<point x="519" y="1061" type="line"/>
			<point x="451" y="1152" type="line"/>
			<point x="298" y="1040" type="line"/>
		</contour>
	</outline>
</glyph>
<glyph name="Umacron" format="2">
	<advance width="744"/>
	<unicode hex="016A"/>
	<outline>
		<contour>
			<point x="506" y="348" type="curve"/>
			<point x="506" y="348" type="line"/>
			<point x="506" y="825" type="line"/>
			<point x="694" y="825" type="line"/>
			<point x="694" y="293" type="line" smooth="yes"/>
			<point x="694" y="89"/>
			<point x="582" y="-15"/>
			<point x="372" y="-15" type="curve"/>
			<point x="162" y="-15"/>
			<point x="50" y="89"/>
			<point x="50" y="293" type="curve"/>
			<point x="50" y="825" type="line"/>
			<point x="238" y="825" type="line"/>
			<point x="238" y="348" type="line" smooth="yes"/>
			<point x="238" y="210"/>
			<point x="280" y="170"/>
			<point x="372" y="170" type="curve"/>
			<point x="464" y="170"/>
			<point x="506" y="210"/>
		</contour>
		<contour>
			<point x="168" y="1066" type="line"/>
			<point x="168" y="946" type="line"/>
			<point x="576" y="946" type="line"/>
			<point x="576" y="1066" type="line"/>
		</contour>
	</outline>
</glyph>
<glyph name="Uhungarumlaut" format="2">
	<advance width="744"/>
	<unicode hex="0170"/>
	<outline>
		<contour>
			<point x="506" y="348" type="curve"/>
			<point x="506" y="348" type="line"/>
			<point x="506" y="825" type="line"/>
			<point x="694" y="825" type="line"/>
			<point x="694" y="293" type="line" smooth="yes"/>
			<point x="694" y="89"/>
			<point x="582" y="-15"/>
			<point x="372" y="-15" type="curve"/>
			<point x="162" y="-15"/>
			<point x="50" y="89"/>
			<point x="50" y="293" type="curve"/>
			<point x="50" y="825" type="line"/>
			<point x="238" y="825" type="line"/>
			<point x="238" y="348" type="line" smooth="yes"/>
			<point x="238" y="210"/>
			<point x="280" y="170"/>
			<point x="372" y="170" type="curve"/>
			<point x="464" y="170"/>
			<point x="506" y="210"/>
		</contour>
		<contour>
			<point x="165" y="976" type="line"/>
			<point x="221" y="899" type="line"/>
			<point x="420" y="1068" type="line"/>
			<point x="338" y="1172" type="line"/>
		</contour>
		<contour>
			<point x="376" y="976" type="line"/>
			<point x="432" y="899" type="line"/>
			<point x="631" y="1068" type="line"/>
			<point x="549" y="1172" type="line"/>
		</contour>
	</outline>
</glyph>
<glyph name="Uhungarumlaut" format="1">
  <advance width="744"/>
  <unicode hex="0170"/>
  <outline>
    <contour>
      <point x="506" y="825" type="line"/>
      <point x="694" y="825" type="line"/>
      <point x="694" y="294" type="line" smooth="yes"/>
      <point x="694" y="90"/>
      <point x="582" y="-14"/>
      <point x="372" y="-15" type="curve" smooth="yes"/>
      <point x="162" y="-14"/>
      <point x="50" y="90"/>
      <point x="50" y="294" type="curve" smooth="yes"/>
      <point x="50" y="825" type="line"/>
      <point x="238" y="825" type="line"/>
      <point x="238" y="349" type="line" smooth="yes"/>
      <point x="238" y="211"/>
      <point x="280" y="171"/>
      <point x="372" y="169" type="curve"/>
      <point x="464" y="171"/>
      <point x="506" y="211"/>
      <point x="506" y="349" type="curve" smooth="yes"/>
    </contour>
    <contour>
      <point x="420" y="1068" type="line"/>
      <point x="338" y="1172" type="line"/>
      <point x="165" y="976" type="line"/>
      <point x="221" y="899" type="line"/>
    </contour>
    <contour>
      <point x="631" y="1068" type="line"/>
      <point x="549" y="1172" type="line"/>
      <point x="376" y="976" type="line"/>
      <point x="432" y="899" type="line"/>
    </contour>
  </outline>
</glyph>
<glyph name="Uogonek" format="2">
	<advance width="744"/>
	<unicode hex="0172"/>
	<outline>
		<contour>
			<point x="265" y="-158" type="curve"/>
			<point x="265" y="-158" type="line"/>
			<point x="265" y="-245"/>
			<point x="339" y="-275"/>
			<point x="391" y="-275" type="curve"/>
			<point x="483" y="-275"/>
			<point x="528" y="-203"/>
			<point x="528" y="-203" type="curve"/>
			<point x="456" y="-149" type="line"/>
			<point x="456" y="-149"/>
			<point x="436" y="-179"/>
			<point x="405" y="-179" type="curve"/>
			<point x="388" y="-179"/>
			<point x="368" y="-165"/>
			<point x="368" y="-140" type="curve"/>
			<point x="368" y="-88"/>
			<point x="400" y="-36"/>
			<point x="417" y="-13" type="curve"/>
			<point x="598" y="1"/>
			<point x="694" y="104"/>
			<point x="694" y="293" type="curve"/>
			<point x="694" y="825" type="line"/>
			<point x="506" y="825" type="line"/>
			<point x="506" y="348" type="line" smooth="yes"/>
			<point x="506" y="210"/>
			<point x="464" y="170"/>
			<point x="372" y="170" type="curve"/>
			<point x="280" y="170"/>
			<point x="238" y="210"/>
			<point x="238" y="348" type="curve"/>
			<point x="238" y="825" type="line"/>
			<point x="50" y="825" type="line"/>
			<point x="50" y="293" type="line" smooth="yes"/>
			<point x="50" y="101"/>
			<point x="148" y="-1"/>
			<point x="334" y="-13" type="curve"/>
			<point x="304" y="-51"/>
			<point x="265" y="-108"/>
		</contour>
	</outline>
</glyph>
<glyph name="Uogonek" format="1">
  <advance width="744"/>
  <unicode hex="172"/>
  <outline>
    <contour>
      <point x="265" y="-158" type="line"/>
      <point x="265" y="-79"/>
      <point x="369" y="26"/>
      <point x="369" y="26" type="curve"/>
      <point x="427" y="0" type="line"/>
      <point x="427" y="0"/>
      <point x="368" y="-70"/>
      <point x="368" y="-140" type="curve" smooth="yes"/>
      <point x="368" y="-165"/>
      <point x="388" y="-179"/>
      <point x="405" y="-179" type="curve" smooth="yes"/>
      <point x="436" y="-179"/>
      <point x="456" y="-149"/>
      <point x="456" y="-149" type="curve"/>
      <point x="528" y="-203" type="line"/>
      <point x="528" y="-203"/>
      <point x="483" y="-275"/>
      <point x="391" y="-275" type="curve" smooth="yes"/>
      <point x="339" y="-275"/>
      <point x="265" y="-245"/>
      <point x="265" y="-158" type="curve" smooth="yes"/>
    </contour>
    <contour>
      <point x="506" y="825" type="line"/>
      <point x="694" y="825" type="line"/>
      <point x="694" y="294" type="line" smooth="yes"/>
      <point x="694" y="90"/>
      <point x="582" y="-14"/>
      <point x="372" y="-15" type="curve"/>
      <point x="162" y="-14"/>
      <point x="50" y="90"/>
      <point x="50" y="294" type="curve" smooth="yes"/>
      <point x="50" y="825" type="line"/>
      <point x="238" y="825" type="line"/>
      <point x="238" y="349" type="line" smooth="yes"/>
      <point x="238" y="211"/>
      <point x="280" y="171"/>
      <point x="372" y="169" type="curve"/>
      <point x="464" y="171"/>
      <point x="506" y="211"/>
      <point x="506" y="349" type="curve" smooth="yes"/>
    </contour>
  </outline>
</glyph>
<glyph name="Ydieresis" format="1">
  <advance width="764"/>
  <unicode hex="0178"/>
  <outline>
    <contour>
      <point x="288" y="0" type="line"/>
      <point x="476" y="0" type="line"/>
      <point x="476" y="370" type="line"/>
      <point x="780" y="825" type="line"/>
      <point x="554" y="825" type="line"/>
      <point x="382" y="561" type="line"/>
      <point x="210" y="825" type="line"/>
      <point x="-16" y="825" type="line"/>
      <point x="288" y="370" type="line"/>
    </contour>
    <contour>
      <point x="212" y="1103"/>
      <point x="171" y="1062"/>
      <point x="171" y="1011" type="curve" smooth="yes"/>
      <point x="171" y="960"/>
      <point x="212" y="919"/>
      <point x="263" y="919" type="curve" smooth="yes"/>
      <point x="314" y="919"/>
      <point x="355" y="960"/>
      <point x="355" y="1011" type="curve" smooth="yes"/>
      <point x="355" y="1062"/>
      <point x="314" y="1103"/>
      <point x="263" y="1103" type="curve" smooth="yes"/>
    </contour>
    <contour>
      <point x="449" y="1103"/>
      <point x="408" y="1062"/>
      <point x="408" y="1011" type="curve" smooth="yes"/>
      <point x="408" y="960"/>
      <point x="449" y="919"/>
      <point x="500" y="919" type="curve" smooth="yes"/>
      <point x="551" y="919"/>
      <point x="592" y="960"/>
      <point x="592" y="1011" type="curve" smooth="yes"/>
      <point x="592" y="1062"/>
      <point x="551" y="1103"/>
      <point x="500" y="1103" type="curve" smooth="yes"/>
    </contour>
  </outline>
</glyph>
<glyph name="Zacute" format="2">
	<advance width="769"/>
	<unicode hex="0179"/>
	<outline>
		<contour>
			<point x="753" y="825" type="line"/>
			<point x="74" y="825" type="line"/>
			<point x="74" y="660" type="line"/>
			<point x="424" y="660" type="line"/>
			<point x="16" y="0" type="line"/>
			<point x="726" y="0" type="line"/>
			<point x="726" y="165" type="line"/>
			<point x="344" y="165" type="line"/>
		</contour>
		<contour>
			<point x="237" y="976" type="line"/>
			<point x="293" y="899" type="line"/>
			<point x="531" y="1037" type="line"/>
			<point x="440" y="1152" type="line"/>
		</contour>
	</outline>
</glyph>
<glyph name="Zdotaccent" format="2">
	<advance width="769"/>
	<unicode hex="017B"/>
	<outline>
		<contour>
			<point x="753" y="825" type="line"/>
			<point x="74" y="825" type="line"/>
			<point x="74" y="660" type="line"/>
			<point x="424" y="660" type="line"/>
			<point x="16" y="0" type="line"/>
			<point x="726" y="0" type="line"/>
			<point x="726" y="165" type="line"/>
			<point x="344" y="165" type="line"/>
		</contour>
		<contour>
			<point x="384" y="1103" type="curve"/>
			<point x="384" y="1103" type="line"/>
			<point x="333" y="1103"/>
			<point x="292" y="1062"/>
			<point x="292" y="1011" type="curve"/>
			<point x="292" y="960"/>
			<point x="333" y="919"/>
			<point x="384" y="919" type="curve"/>
			<point x="435" y="919"/>
			<point x="476" y="960"/>
			<point x="476" y="1011" type="curve"/>
			<point x="476" y="1062"/>
			<point x="435" y="1103"/>
		</contour>
	</outline>
</glyph>
<glyph name="zdotaccent" format="1">
  <advance width="561"/>
  <unicode hex="017C"/>
  <outline>
    <contour>
      <point x="47" y="378" type="line"/>
      <point x="259" y="378" type="line"/>
      <point x="5" y="0" type="line"/>
      <point x="536" y="0" type="line"/>
      <point x="536" y="135" type="line"/>
      <point x="302" y="135" type="line"/>
      <point x="556" y="513" type="line"/>
      <point x="47" y="513" type="line"/>
    </contour>
    <contour>
      <point x="229" y="791"/>
      <point x="188" y="750"/>
      <point x="188" y="699" type="curve" smooth="yes"/>
      <point x="188" y="648"/>
      <point x="229" y="607"/>
      <point x="280" y="607" type="curve" smooth="yes"/>
      <point x="331" y="607"/>
      <point x="372" y="648"/>
      <point x="372" y="699" type="curve" smooth="yes"/>
      <point x="372" y="750"/>
      <point x="331" y="791"/>
      <point x="280" y="791" type="curve" smooth="yes"/>
    </contour>
  </outline>
</glyph>
<glyph name="Zcaron" format="2">
	<advance width="769"/>
	<unicode hex="017D"/>
	<outline>
		<contour>
			<point x="753" y="825" type="line"/>
			<point x="74" y="825" type="line"/>
			<point x="74" y="660" type="line"/>
			<point x="424" y="660" type="line"/>
			<point x="16" y="0" type="line"/>
			<point x="726" y="0" type="line"/>
			<point x="726" y="165" type="line"/>
			<point x="344" y="165" type="line"/>
		</contour>
		<contour>
			<point x="231" y="1152" type="line"/>
			<point x="163" y="1061" type="line"/>
			<point x="384" y="899" type="line"/>
			<point x="605" y="1061" type="line"/>
			<point x="537" y="1152" type="line"/>
			<point x="384" y="1040" type="line"/>
		</contour>
	</outline>
</glyph>
<glyph name="zcaron" format="2">
	<advance width="561"/>
	<unicode hex="017E"/>
	<outline>
		<contour>
			<point x="556" y="513" type="line"/>
			<point x="47" y="513" type="line"/>
			<point x="47" y="378" type="line"/>
			<point x="259" y="378" type="line"/>
			<point x="5" y="0" type="line"/>
			<point x="536" y="0" type="line"/>
			<point x="536" y="135" type="line"/>
			<point x="302" y="135" type="line"/>
		</contour>
		<contour>
			<point x="128" y="840" type="line"/>
			<point x="60" y="749" type="line"/>
			<point x="281" y="587" type="line"/>
			<point x="502" y="749" type="line"/>
			<point x="434" y="840" type="line"/>
			<point x="281" y="728" type="line"/>
		</contour>
	</outline>
</glyph>
<glyph name="uni0218" format="2">
	<advance width="672"/>
	<unicode hex="0218"/>
	<outline>
		<contour>
			<point x="364" y="840" type="curve"/>
			<point x="364" y="840" type="line"/>
			<point x="231" y="840"/>
			<point x="95" y="742"/>
			<point x="95" y="588" type="curve"/>
			<point x="95" y="502"/>
			<point x="153" y="425"/>
			<point x="252" y="376" type="curve"/>
			<point x="350" y="327"/>
			<point x="438" y="300"/>
			<point x="438" y="240" type="curve"/>
			<point x="438" y="163"/>
			<point x="360" y="159"/>
			<point x="319" y="159" type="curve"/>
			<point x="227" y="159"/>
			<point x="117" y="252"/>
			<point x="117" y="252" type="curve"/>
			<point x="23" y="94" type="line"/>
			<point x="23" y="94"/>
			<point x="140" y="-15"/>
			<point x="333" y="-15" type="curve"/>
			<point x="494" y="-15"/>
			<point x="644" y="54"/>
			<point x="644" y="251" type="curve"/>
			<point x="644" y="359"/>
			<point x="543" y="437"/>
			<point x="451" y="476" type="curve"/>
			<point x="357" y="516"/>
			<point x="279" y="549"/>
			<point x="279" y="595" type="curve"/>
			<point x="279" y="640"/>
			<point x="313" y="669"/>
			<point x="377" y="669" type="curve"/>
			<point x="462" y="669"/>
			<point x="544" y="612"/>
			<point x="544" y="612" type="curve"/>
			<point x="620" y="762" type="line"/>
			<point x="620" y="762"/>
			<point x="514" y="840"/>
		</contour>
		<contour>
			<point x="335" y="-40" type="curve"/>
			<point x="335" y="-40" type="line"/>
			<point x="385" y="-40"/>
			<point x="425" y="-80"/>
			<point x="425" y="-130" type="curve"/>
			<point x="425" y="-223"/>
			<point x="358" y="-299"/>
			<point x="295" y="-351" type="curve"/>
			<point x="255" y="-320" type="line"/>
			<point x="255" y="-320"/>
			<point x="302" y="-275"/>
			<point x="314" y="-210" type="curve"/>
			<point x="276" y="-201"/>
			<point x="247" y="-170"/>
			<point x="247" y="-130" type="curve"/>
			<point x="247" y="-80"/>
			<point x="287" y="-40"/>
		</contour>
	</outline>
</glyph>
<glyph name="uni0219" format="2">
	<advance width="492"/>
	<unicode hex="0219"/>
	<outline>
		<contour>
			<point x="283" y="528" type="curve"/>
			<point x="283" y="528" type="line"/>
			<point x="148" y="528"/>
			<point x="59" y="468"/>
			<point x="59" y="363" type="curve"/>
			<point x="59" y="286"/>
			<point x="111" y="250"/>
			<point x="163" y="223" type="curve"/>
			<point x="221" y="193"/>
			<point x="277" y="190"/>
			<point x="277" y="153" type="curve"/>
			<point x="277" y="119"/>
			<point x="247" y="116"/>
			<point x="222" y="116" type="curve"/>
			<point x="165" y="116"/>
			<point x="95" y="175"/>
			<point x="95" y="175" type="curve"/>
			<point x="23" y="54" type="line"/>
			<point x="23" y="54"/>
			<point x="97" y="-15"/>
			<point x="221" y="-15" type="curve"/>
			<point x="326" y="-15"/>
			<point x="464" y="9"/>
			<point x="464" y="160" type="curve"/>
			<point x="464" y="265"/>
			<point x="376" y="303"/>
			<point x="308" y="324" type="curve"/>
			<point x="264" y="338"/>
			<point x="228" y="346"/>
			<point x="228" y="373" type="curve"/>
			<point x="228" y="397"/>
			<point x="244" y="404"/>
			<point x="283" y="404" type="curve"/>
			<point x="337" y="404"/>
			<point x="397" y="372"/>
			<point x="397" y="372" type="curve"/>
			<point x="455" y="488" type="line"/>
			<point x="455" y="488"/>
			<point x="382" y="528"/>
		</contour>
		<contour>
			<point x="245" y="-40" type="curve"/>
			<point x="245" y="-40" type="line"/>
			<point x="295" y="-40"/>
			<point x="335" y="-80"/>
			<point x="335" y="-130" type="curve"/>
			<point x="335" y="-223"/>
			<point x="268" y="-299"/>
			<point x="205" y="-351" type="curve"/>
			<point x="165" y="-320" type="line"/>
			<point x="165" y="-320"/>
			<point x="212" y="-275"/>
			<point x="224" y="-210" type="curve"/>
			<point x="186" y="-201"/>
			<point x="157" y="-170"/>
			<point x="157" y="-130" type="curve"/>
			<point x="157" y="-80"/>
			<point x="197" y="-40"/>
		</contour>
	</outline>
</glyph>
<glyph name="dotaccent" format="1">
  <advance width="324"/>
  <unicode hex="02D9"/>
  <outline>
    <contour>
      <point x="111" y="791"/>
      <point x="70" y="750"/>
      <point x="70" y="699" type="curve" smooth="yes"/>
      <point x="70" y="648"/>
      <point x="111" y="607"/>
      <point x="162" y="607" type="curve" smooth="yes"/>
      <point x="213" y="607"/>
      <point x="254" y="648"/>
      <point x="254" y="699" type="curve" smooth="yes"/>
      <point x="254" y="750"/>
      <point x="213" y="791"/>
      <point x="162" y="791" type="curve" smooth="yes"/>
    </contour>
  </outline>
</glyph>
<glyph name="hungarumlaut" format="1">
  <advance width="606"/>
  <unicode hex="2DD"/>
  <outline>
    <contour>
      <point x="334" y="756" type="line"/>
      <point x="252" y="860" type="line"/>
      <point x="79" y="664" type="line"/>
      <point x="135" y="587" type="line"/>
    </contour>
    <contour>
      <point x="545" y="756" type="line"/>
      <point x="463" y="860" type="line"/>
      <point x="290" y="664" type="line"/>
      <point x="346" y="587" type="line"/>
    </contour>
  </outline>
</glyph>
<glyph name="endash" format="2">
	<advance width="540"/>
	<unicode hex="2013"/>
	<outline>
		<contour>
			<point x="0" y="366" type="line"/>
			<point x="0" y="213" type="line"/>
			<point x="540" y="213" type="line"/>
			<point x="540" y="366" type="line"/>
		</contour>
	</outline>
</glyph>
<glyph name="emdash" format="2">
	<advance width="1080"/>
	<unicode hex="2014"/>
	<outline>
		<contour>
			<point x="0" y="366" type="line"/>
			<point x="0" y="213" type="line"/>
			<point x="1080" y="213" type="line"/>
			<point x="1080" y="366" type="line"/>
		</contour>
	</outline>
</glyph>
<glyph name="quoteleft" format="2">
	<advance width="291"/>
	<unicode hex="2018"/>
	<outline>
		<contour>
			<point x="128" y="476" type="curve"/>
			<point x="128" y="476" type="line"/>
			<point x="185" y="476"/>
			<point x="231" y="523"/>
			<point x="231" y="581" type="curve"/>
			<point x="231" y="628"/>
			<point x="197" y="664"/>
			<point x="153" y="675" type="curve"/>
			<point x="167" y="751"/>
			<point x="222" y="803"/>
			<point x="222" y="803" type="curve"/>
			<point x="175" y="840" type="line"/>
			<point x="102" y="779"/>
			<point x="23" y="690"/>
			<point x="23" y="581" type="curve"/>
			<point x="23" y="523"/>
			<point x="70" y="476"/>
		</contour>
	</outline>
</glyph>
<glyph name="ellipsis" format="1">
  <advance width="1047"/>
  <unicode hex="2026"/>
  <outline>
    <contour>
      <point x="174" y="214" type="line" smooth="yes"/>
      <point x="111" y="214"/>
      <point x="60" y="163"/>
      <point x="60" y="99" type="curve" smooth="yes"/>
      <point x="60" y="36"/>
      <point x="111" y="-15"/>
      <point x="174" y="-15" type="curve" smooth="yes"/>
      <point x="238" y="-15"/>
      <point x="289" y="36"/>
      <point x="289" y="99" type="curve" smooth="yes"/>
      <point x="289" y="163"/>
      <point x="238" y="214"/>
      <point x="174" y="214" type="curve" smooth="yes"/>
    </contour>
    <contour>
      <point x="523" y="214" type="line" smooth="yes"/>
      <point x="460" y="214"/>
      <point x="409" y="163"/>
      <point x="409" y="99" type="curve" smooth="yes"/>
      <point x="409" y="36"/>
      <point x="460" y="-15"/>
      <point x="523" y="-15" type="curve" smooth="yes"/>
      <point x="587" y="-15"/>
      <point x="638" y="36"/>
      <point x="638" y="99" type="curve" smooth="yes"/>
      <point x="638" y="163"/>
      <point x="587" y="214"/>
      <point x="523" y="214" type="curve" smooth="yes"/>
    </contour>
    <contour>
      <point x="872" y="214" type="line" smooth="yes"/>
      <point x="809" y="214"/>
      <point x="758" y="163"/>
      <point x="758" y="99" type="curve" smooth="yes"/>
      <point x="758" y="36"/>
      <point x="809" y="-15"/>
      <point x="872" y="-15" type="curve" smooth="yes"/>
      <point x="936" y="-15"/>
      <point x="987" y="36"/>
      <point x="987" y="99" type="curve" smooth="yes"/>
      <point x="987" y="163"/>
      <point x="936" y="214"/>
      <point x="872" y="214" type="curve" smooth="yes"/>
    </contour>
  </outline>
</glyph>
<glyph name="perthousand" format="2">
	<advance width="1469"/>
	<unicode hex="2030"/>
	<outline>
		<contour>
			<point x="791" y="825" type="line"/>
			<point x="673" y="825" type="line"/>
			<point x="193" y="0" type="line"/>
			<point x="311" y="0" type="line"/>
		</contour>
		<contour>
			<point x="23" y="643" type="curve"/>
			<point x="23" y="643" type="line"/>
			<point x="23" y="529"/>
			<point x="111" y="446"/>
			<point x="246" y="446" type="curve"/>
			<point x="374" y="446"/>
			<point x="465" y="529"/>
			<point x="465" y="643" type="curve"/>
			<point x="465" y="759"/>
			<point x="368" y="840"/>
			<point x="246" y="840" type="curve"/>
			<point x="120" y="840"/>
			<point x="23" y="759"/>
		</contour>
		<contour>
			<point x="152" y="643" type="curve"/>
			<point x="152" y="643" type="line"/>
			<point x="152" y="697"/>
			<point x="193" y="736"/>
			<point x="244" y="736" type="curve"/>
			<point x="294" y="736"/>
			<point x="334" y="697"/>
			<point x="334" y="643" type="curve"/>
			<point x="334" y="589"/>
			<point x="295" y="552"/>
			<point x="244" y="552" type="curve"/>
			<point x="190" y="552"/>
			<point x="152" y="589"/>
		</contour>
		<contour>
			<point x="516" y="182" type="curve"/>
			<point x="516" y="182" type="line"/>
			<point x="516" y="66"/>
			<point x="613" y="-15"/>
			<point x="739" y="-15" type="curve"/>
			<point x="861" y="-15"/>
			<point x="958" y="66"/>
			<point x="958" y="182" type="curve"/>
			<point x="958" y="296"/>
			<point x="867" y="379"/>
			<point x="739" y="379" type="curve"/>
			<point x="604" y="379"/>
			<point x="516" y="296"/>
		</contour>
		<contour>
			<point x="645" y="182" type="curve"/>
			<point x="645" y="182" type="line"/>
			<point x="645" y="236"/>
			<point x="683" y="273"/>
			<point x="737" y="273" type="curve"/>
			<point x="788" y="273"/>
			<point x="827" y="236"/>
			<point x="827" y="182" type="curve"/>
			<point x="827" y="128"/>
			<point x="787" y="89"/>
			<point x="737" y="89" type="curve"/>
			<point x="686" y="89"/>
			<point x="645" y="128"/>
		</contour>
		<contour>
			<point x="1004" y="182" type="curve"/>
			<point x="1004" y="182" type="line"/>
			<point x="1004" y="66"/>
			<point x="1101" y="-15"/>
			<point x="1227" y="-15" type="curve"/>
			<point x="1349" y="-15"/>
			<point x="1446" y="66"/>
			<point x="1446" y="182" type="curve"/>
			<point x="1446" y="296"/>
			<point x="1355" y="379"/>
			<point x="1227" y="379" type="curve"/>
			<point x="1092" y="379"/>
			<point x="1004" y="296"/>
		</contour>
		<contour>
			<point x="1133" y="182" type="curve"/>
			<point x="1133" y="182" type="line"/>
			<point x="1133" y="236"/>
			<point x="1171" y="273"/>
			<point x="1225" y="273" type="curve"/>
			<point x="1276" y="273"/>
			<point x="1315" y="236"/>
			<point x="1315" y="182" type="curve"/>
			<point x="1315" y="128"/>
			<point x="1275" y="89"/>
			<point x="1225" y="89" type="curve"/>
			<point x="1174" y="89"/>
			<point x="1133" y="128"/>
		</contour>
	</outline>
</glyph>
<glyph name="guilsinglleft" format="2">
	<advance width="375"/>
	<unicode hex="2039"/>
	<outline>
		<contour>
			<point x="228" y="28" type="line"/>
			<point x="321" y="101" type="line"/>
			<point x="183" y="278" type="line"/>
			<point x="321" y="455" type="line"/>
			<point x="228" y="528" type="line"/>
			<point x="33" y="278" type="line"/>
		</contour>
	</outline>
</glyph>
<glyph name="fraction" format="2">
	<advance width="264"/>
	<unicode hex="2044"/>
	<outline>
		<contour>
			<point x="431" y="825" type="line"/>
			<point x="313" y="825" type="line"/>
			<point x="-167" y="0" type="line"/>
			<point x="-49" y="0" type="line"/>
		</contour>
	</outline>
</glyph>
<glyph name="Euro" format="2">
	<advance width="831"/>
	<unicode hex="20AC"/>
	<outline>
		<contour>
			<point x="299" y="442" type="curve"/>
			<point x="299" y="442" type="line"/>
			<point x="646" y="442" type="line"/>
			<point x="646" y="550" type="line"/>
			<point x="342" y="550" type="line"/>
			<point x="385" y="607"/>
			<point x="458" y="651"/>
			<point x="568" y="651" type="curve"/>
			<point x="664" y="651"/>
			<point x="730" y="600"/>
			<point x="730" y="600" type="curve"/>
			<point x="812" y="764" type="line"/>
			<point x="812" y="764"/>
			<point x="720" y="840"/>
			<point x="541" y="840" type="curve"/>
			<point x="355" y="840"/>
			<point x="182" y="718"/>
			<point x="119" y="550" type="curve"/>
			<point x="23" y="550" type="line"/>
			<point x="23" y="442" type="line"/>
			<point x="95" y="442" type="line"/>
			<point x="94" y="431"/>
			<point x="94" y="421"/>
			<point x="94" y="411" type="curve"/>
			<point x="94" y="401"/>
			<point x="94" y="391"/>
			<point x="95" y="382" type="curve"/>
			<point x="23" y="382" type="line"/>
			<point x="23" y="274" type="line"/>
			<point x="119" y="274" type="line"/>
			<point x="183" y="106"/>
			<point x="355" y="-15"/>
			<point x="541" y="-15" type="curve"/>
			<point x="720" y="-15"/>
			<point x="812" y="61"/>
			<point x="812" y="61" type="curve"/>
			<point x="730" y="225" type="line"/>
			<point x="730" y="225"/>
			<point x="664" y="174"/>
			<point x="568" y="174" type="curve"/>
			<point x="459" y="174"/>
			<point x="386" y="217"/>
			<point x="343" y="274" type="curve"/>
			<point x="646" y="274" type="line"/>
			<point x="646" y="382" type="line"/>
			<point x="299" y="382" type="line"/>
			<point x="298" y="393"/>
			<point x="297" y="403"/>
			<point x="297" y="414" type="curve"/>
			<point x="297" y="423"/>
			<point x="297" y="432"/>
		</contour>
	</outline>
</glyph>
<glyph name="trademark" format="1">
  <advance width="514"/>
  <unicode hex="2122"/>
  <outline>
    <contour>
      <point x="17" y="773" type="line"/>
      <point x="80" y="773" type="line"/>
      <point x="80" y="825" type="line"/>
      <point x="17" y="825" type="line"/>
    </contour>
    <contour>
      <point x="78" y="567" type="line"/>
      <point x="139" y="567" type="line"/>
      <point x="139" y="825" type="line"/>
      <point x="78" y="825" type="line"/>
    </contour>
    <contour>
      <point x="137" y="773" type="line"/>
      <point x="200" y="773" type="line"/>
      <point x="200" y="825" type="line"/>
      <point x="137" y="825" type="line"/>
    </contour>
    <contour>
      <point x="209" y="567" type="line"/>
      <point x="269" y="567" type="line"/>
      <point x="282" y="712" type="line"/>
      <point x="334" y="569" type="line"/>
      <point x="354" y="569" type="line"/>
      <point x="354" y="676" type="line"/>
      <point x="296" y="825" type="line"/>
      <point x="233" y="825" type="line"/>
    </contour>
    <contour>
      <point x="472" y="825" type="line"/>
      <point x="409" y="825" type="line"/>
      <point x="352" y="676" type="line"/>
      <point x="352" y="569" type="line"/>
      <point x="370" y="569" type="line"/>
      <point x="422" y="712" type="line"/>
      <point x="435" y="567" type="line"/>
      <point x="497" y="567" type="line"/>
    </contour>
  </outline>
</glyph>
<glyph name="lessequal" format="2">
	<advance width="667"/>
	<unicode hex="2264"/>
	<outline>
		<contour>
			<point x="60" y="603" type="line"/>
			<point x="60" y="485" type="line"/>
			<point x="607" y="263" type="line"/>
			<point x="607" y="405" type="line"/>
			<point x="249" y="543" type="line"/>
			<point x="607" y="683" type="line"/>
			<point x="607" y="825" type="line"/>
		</contour>
		<contour>
			<point x="60" y="153" type="line"/>
			<point x="60" y="0" type="line"/>
			<point x="607" y="0" type="line"/>
			<point x="607" y="153" type="line"/>
		</contour>
	</outline>
</glyph>
<glyph name="fl" format="2">
	<advance width="672"/>
	<unicode hex="FB02"/>
	<outline>
		<contour>
			<point x="90" y="513" type="line"/>
			<point x="16" y="513" type="line"/>
			<point x="16" y="378" type="line"/>
			<point x="90" y="378" type="line"/>
			<point x="90" y="0" type="line"/>
			<point x="267" y="0" type="line"/>
			<point x="267" y="378" type="line"/>
			<point x="385" y="378" type="line"/>
			<point x="385" y="513" type="line"/>
			<point x="267" y="513" type="line"/>
			<point x="267" y="617" type="line" smooth="yes"/>
			<point x="267" y="688"/>
			<point x="277" y="718"/>
			<point x="322" y="718" type="curve"/>
			<point x="351" y="718"/>
			<point x="375" y="704"/>
			<point x="375" y="704" type="curve"/>
			<point x="416" y="843" type="line"/>
			<point x="392" y="857"/>
			<point x="349" y="875"/>
			<point x="291" y="875" type="curve"/>
			<point x="163" y="875"/>
			<point x="91" y="772"/>
			<point x="90" y="622" type="curve"/>
		</contour>
		<contour>
			<point x="435" y="0" type="line"/>
			<point x="612" y="0" type="line"/>
			<point x="612" y="860" type="line"/>
			<point x="435" y="860" type="line"/>
		</contour>
	</outline>
</glyph>
<glyph name="Q.2" format="1">
  <advance width="920"/>
  <outline>
    <contour>
      <point x="216" y="413" type="line" smooth="yes"/>
      <point x="216" y="536"/>
      <point x="279" y="651"/>
      <point x="424" y="651" type="curve" smooth="yes"/>
      <point x="570" y="651"/>
      <point x="631" y="536"/>
      <point x="631" y="413" type="curve" smooth="yes"/>
      <point x="631" y="290"/>
      <point x="574" y="175"/>
      <point x="424" y="175" type="curve" smooth="yes"/>
      <point x="270" y="175"/>
      <point x="216" y="290"/>
      <point x="216" y="413" type="curve" smooth="yes"/>
    </contour>
    <contour>
      <point x="13" y="413" type="line" smooth="yes"/>
      <point x="13" y="172"/>
      <point x="180" y="-15"/>
      <point x="424" y="-15" type="curve" smooth="yes"/>
      <point x="661" y="-15"/>
      <point x="834" y="172"/>
      <point x="834" y="413" type="curve" smooth="yes"/>
      <point x="834" y="654"/>
      <point x="653" y="840"/>
      <point x="424" y="840" type="curve" smooth="yes"/>
      <point x="197" y="840"/>
      <point x="13" y="654"/>
      <point x="13" y="413" type="curve" smooth="yes"/>
    </contour>
    <contour>
      <point x="360" y="127" type="line"/>
      <point x="389" y="46"/>
      <point x="440" y="-26"/>
      <point x="511" y="-80" type="curve" smooth="yes"/>
      <point x="653" y="-189"/>
      <point x="772" y="-184"/>
      <point x="772" y="-184" type="curve"/>
      <point x="806" y="-4" type="line"/>
      <point x="806" y="-4"/>
      <point x="723" y="-4"/>
      <point x="647" y="53" type="curve" smooth="yes"/>
      <point x="616" y="76"/>
      <point x="592" y="101"/>
      <point x="574" y="127" type="curve"/>
    </contour>
  </outline>
</glyph>
<glyph name="Q.4" format="1">
  <advance width="920"/>
  <outline>
    <contour>
      <point x="354" y="315" type="line"/>
      <point x="354" y="315"/>
      <point x="399" y="149"/>
      <point x="481" y="67" type="curve"/>
      <point x="552" y="-16"/>
      <point x="671" y="-92"/>
      <point x="754" y="-111" type="curve"/>
      <point x="834" y="58" type="line"/>
      <point x="765" y="76"/>
      <point x="672" y="133"/>
      <point x="607" y="197" type="curve" smooth="yes"/>
      <point x="519" y="285"/>
      <point x="477" y="398"/>
      <point x="477" y="398" type="curve"/>
    </contour>
    <contour>
      <point x="216" y="413" type="line" smooth="yes"/>
      <point x="216" y="536"/>
      <point x="279" y="651"/>
      <point x="424" y="651" type="curve" smooth="yes"/>
      <point x="570" y="651"/>
      <point x="631" y="536"/>
      <point x="631" y="413" type="curve" smooth="yes"/>
      <point x="631" y="290"/>
      <point x="574" y="175"/>
      <point x="424" y="175" type="curve" smooth="yes"/>
      <point x="270" y="175"/>
      <point x="216" y="290"/>
      <point x="216" y="413" type="curve" smooth="yes"/>
    </contour>
    <contour>
      <point x="13" y="413" type="line" smooth="yes"/>
      <point x="13" y="172"/>
      <point x="180" y="-15"/>
      <point x="424" y="-15" type="curve" smooth="yes"/>
      <point x="661" y="-15"/>
      <point x="834" y="172"/>
      <point x="834" y="413" type="curve" smooth="yes"/>
      <point x="834" y="654"/>
      <point x="653" y="840"/>
      <point x="424" y="840" type="curve" smooth="yes"/>
      <point x="197" y="840"/>
      <point x="13" y="654"/>
      <point x="13" y="413" type="curve" smooth="yes"/>
    </contour>
  </outline>
</glyph>
<glyph name="Q.7" format="1">
  <advance width="948"/>
  <outline>
    <contour>
      <point x="23" y="413" type="line" smooth="yes"/>
      <point x="23" y="71"/>
      <point x="299" y="-48"/>
      <point x="618" y="-48" type="curve" smooth="yes"/>
      <point x="828" y="-48"/>
      <point x="877" y="-30"/>
      <point x="877" y="-30" type="curve"/>
      <point x="877" y="147" type="line"/>
      <point x="772" y="112"/>
      <point x="628" y="101"/>
      <point x="628" y="101" type="curve"/>
      <point x="628" y="105" type="line"/>
      <point x="678" y="105"/>
      <point x="844" y="190"/>
      <point x="844" y="413" type="curve" smooth="yes"/>
      <point x="844" y="654"/>
      <point x="663" y="840"/>
      <point x="434" y="840" type="curve" smooth="yes"/>
      <point x="207" y="840"/>
      <point x="23" y="654"/>
      <point x="23" y="413" type="curve" smooth="yes"/>
    </contour>
    <contour>
      <point x="226" y="413" type="line" smooth="yes"/>
      <point x="226" y="536"/>
      <point x="289" y="651"/>
      <point x="434" y="651" type="curve" smooth="yes"/>
      <point x="580" y="651"/>
      <point x="641" y="536"/>
      <point x="641" y="413" type="curve" smooth="yes"/>
      <point x="641" y="290"/>
      <point x="584" y="175"/>
      <point x="434" y="175" type="curve" smooth="yes"/>
      <point x="280" y="175"/>
      <point x="226" y="290"/>
      <point x="226" y="413" type="curve" smooth="yes"/>
    </contour>
  </outline>
</glyph>
<glyph name="R.1" format="2">
	<advance width="722"/>
	<outline>
		<contour>
			<point x="355" y="825" type="curve"/>
			<point x="60" y="825" type="line"/>
			<point x="60" y="0" type="line"/>
			<point x="248" y="0" type="line"/>
			<point x="248" y="326" type="line"/>
			<point x="444" y="73" type="line"/>
			<point x="444" y="73"/>
			<point x="502" y="-15"/>
			<point x="607" y="-15" type="curve"/>
			<point x="697" y="-15"/>
			<point x="743" y="33"/>
			<point x="743" y="33" type="curve"/>
			<point x="689" y="169" type="line"/>
			<point x="689" y="169"/>
			<point x="670" y="154"/>
			<point x="643" y="154" type="curve"/>
			<point x="607" y="154"/>
			<point x="582" y="192"/>
			<point x="455" y="341" type="curve"/>
			<point x="556" y="373"/>
			<point x="624" y="456"/>
			<point x="624" y="580" type="curve"/>
			<point x="624" y="742"/>
			<point x="508" y="825"/>
		</contour>
		<contour>
			<point x="270" y="459" type="curve"/>
			<point x="248" y="459" type="line"/>
			<point x="248" y="675" type="line"/>
			<point x="270" y="675" type="line" smooth="yes"/>
			<point x="341" y="675"/>
			<point x="426" y="670"/>
			<point x="426" y="567" type="curve"/>
			<point x="426" y="464"/>
			<point x="341" y="459"/>
		</contour>
	</outline>
</glyph>
<glyph name="f_f_j" format="2">
	<advance width="1047"/>
	<outline>
		<contour>
			<point x="987" y="-79" type="curve"/>
			<point x="987" y="-79" type="line"/>
			<point x="987" y="513" type="line"/>
			<point x="642" y="513" type="line"/>
			<point x="642" y="617" type="line" smooth="yes"/>
			<point x="642" y="688"/>
			<point x="658" y="719"/>
			<point x="728" y="719" type="curve"/>
			<point x="781" y="719"/>
			<point x="845" y="667"/>
			<point x="845" y="667" type="curve"/>
			<point x="907" y="792" type="line"/>
			<point x="907" y="792"/>
			<point x="814" y="875"/>
			<point x="676" y="875" type="curve"/>
			<point x="536" y="875"/>
			<point x="466" y="772"/>
			<point x="465" y="622" type="curve"/>
			<point x="465" y="513" type="line"/>
			<point x="287" y="513" type="line"/>
			<point x="287" y="617" type="line" smooth="yes"/>
			<point x="287" y="688"/>
			<point x="297" y="718"/>
			<point x="342" y="718" type="curve"/>
			<point x="371" y="718"/>
			<point x="395" y="704"/>
			<point x="395" y="704" type="curve"/>
			<point x="457" y="829" type="line"/>
			<point x="457" y="829"/>
			<point x="401" y="875"/>
			<point x="311" y="875" type="curve"/>
			<point x="183" y="875"/>
			<point x="111" y="772"/>
			<point x="110" y="622" type="curve"/>
			<point x="110" y="513" type="line"/>
			<point x="36" y="513" type="line"/>
			<point x="36" y="378" type="line"/>
			<point x="110" y="378" type="line"/>
			<point x="110" y="0" type="line"/>
			<point x="287" y="0" type="line"/>
			<point x="287" y="378" type="line"/>
			<point x="465" y="378" type="line"/>
			<point x="465" y="0" type="line"/>
			<point x="642" y="0" type="line"/>
			<point x="642" y="378" type="line"/>
			<point x="810" y="378" type="line"/>
			<point x="810" y="-45" type="line" smooth="yes"/>
			<point x="810" y="-93"/>
			<point x="791" y="-115"/>
			<point x="761" y="-115" type="curve"/>
			<point x="739" y="-115"/>
			<point x="716" y="-100"/>
			<point x="716" y="-100" type="curve"/>
			<point x="661" y="-243" type="line"/>
			<point x="686" y="-254"/>
			<point x="718" y="-275"/>
			<point x="802" y="-275" type="curve"/>
			<point x="943" y="-275"/>
			<point x="987" y="-170"/>
		</contour>
	</outline>
</glyph>
<glyph name="f_j" format="1">
  <advance width="672"/>
  <outline>
    <contour>
      <point x="612" y="-79" type="line" smooth="yes"/>
      <point x="612" y="-170"/>
      <point x="568" y="-275"/>
      <point x="427" y="-275" type="curve" smooth="yes"/>
      <point x="343" y="-275"/>
      <point x="311" y="-254"/>
      <point x="286" y="-243" type="curve"/>
      <point x="341" y="-100" type="line"/>
      <point x="341" y="-100"/>
      <point x="364" y="-115"/>
      <point x="386" y="-115" type="curve" smooth="yes"/>
      <point x="416" y="-115"/>
      <point x="435" y="-93"/>
      <point x="435" y="-45" type="curve" smooth="yes"/>
      <point x="435" y="378" type="line"/>
      <point x="267" y="378" type="line"/>
      <point x="267" y="0" type="line"/>
      <point x="90" y="0" type="line"/>
      <point x="90" y="378" type="line"/>
      <point x="16" y="378" type="line"/>
      <point x="16" y="513" type="line"/>
      <point x="90" y="513" type="line"/>
      <point x="90" y="622" type="line" smooth="yes"/>
      <point x="91" y="772"/>
      <point x="161" y="875"/>
      <point x="301" y="875" type="curve" smooth="yes"/>
      <point x="439" y="875"/>
      <point x="532" y="792"/>
      <point x="532" y="792" type="curve"/>
      <point x="470" y="667" type="line"/>
      <point x="470" y="667"/>
      <point x="406" y="719"/>
      <point x="353" y="719" type="curve" smooth="yes"/>
      <point x="283" y="719"/>
      <point x="267" y="688"/>
      <point x="267" y="617" type="curve" smooth="yes"/>
      <point x="267" y="513" type="line"/>
      <point x="612" y="513" type="line"/>
    </contour>
  </outline>
</glyph>
<glyph name="f_t" format="2">
	<advance width="740"/>
	<outline>
		<contour>
			<point x="90" y="513" type="line"/>
			<point x="16" y="513" type="line"/>
			<point x="16" y="378" type="line"/>
			<point x="90" y="378" type="line"/>
			<point x="90" y="0" type="line"/>
			<point x="267" y="0" type="line"/>
			<point x="267" y="378" type="line"/>
			<point x="435" y="378" type="line"/>
			<point x="435" y="181" type="line" smooth="yes"/>
			<point x="435" y="90"/>
			<point x="469" y="-15"/>
			<point x="610" y="-15" type="curve"/>
			<point x="683" y="-15"/>
			<point x="740" y="17"/>
			<point x="740" y="17" type="curve"/>
			<point x="696" y="160" type="line"/>
			<point x="696" y="160"/>
			<point x="675" y="144"/>
			<point x="652" y="144" type="curve"/>
			<point x="624" y="144"/>
			<point x="612" y="167"/>
			<point x="612" y="215" type="curve"/>
			<point x="612" y="378" type="line"/>
			<point x="720" y="378" type="line"/>
			<point x="720" y="513" type="line"/>
			<point x="612" y="513" type="line"/>
			<point x="612" y="704" type="line"/>
			<point x="435" y="704" type="line"/>
			<point x="435" y="513" type="line"/>
			<point x="267" y="513" type="line"/>
			<point x="267" y="617" type="line" smooth="yes"/>
			<point x="267" y="688"/>
			<point x="277" y="718"/>
			<point x="322" y="718" type="curve"/>
			<point x="351" y="718"/>
			<point x="375" y="704"/>
			<point x="375" y="704" type="curve"/>
			<point x="437" y="829" type="line"/>
			<point x="437" y="829"/>
			<point x="381" y="875"/>
			<point x="291" y="875" type="curve"/>
			<point x="163" y="875"/>
			<point x="91" y="772"/>
			<point x="90" y="622" type="curve"/>
		</contour>
	</outline>
</glyph>
